<?xml version="1.0" encoding="UTF-8" standalone="no"?>
<!DOCTYPE svg PUBLIC "-//W3C//DTD SVG 1.1//EN"
 "http://www.w3.org/Graphics/SVG/1.1/DTD/svg11.dtd">
<!-- Generated by graphviz version 2.26.3 (20100126.1600)
 -->
<!-- Title: controllers_diagram Pages: 1 -->
<svg width="832pt" height="815pt"
 viewBox="0.00 0.00 832.00 815.00" xmlns="http://www.w3.org/2000/svg" xmlns:xlink="http://www.w3.org/1999/xlink">
<g id="graph1" class="graph" transform="scale(1 1) rotate(0) translate(4 811)">
<title>controllers_diagram</title>
<polygon fill="white" stroke="white" points="-4,5 -4,-811 829,-811 829,5 -4,5"/>
<!-- _diagram_info -->
<g id="node1" class="node"><title>_diagram_info</title>
<text text-anchor="start" x="581" y="-100.3" font-family="Times Roman,serif" font-size="13.00">Controllers diagram</text>
<text text-anchor="start" x="581" y="-83.3" font-family="Times Roman,serif" font-size="13.00">Date: Feb 28 2012 &#45; 17:53</text>
<text text-anchor="start" x="581" y="-66.3" font-family="Times Roman,serif" font-size="13.00">Migration version: 20120228120121</text>
<text text-anchor="start" x="581" y="-49.3" font-family="Times Roman,serif" font-size="13.00">Generated by RailRoady 1.0.7</text>
<text text-anchor="start" x="581" y="-32.3" font-family="Times Roman,serif" font-size="13.00">http://railroady.prestonlee.com</text>
</g>
<!-- AssignmentsController -->
<g id="node2" class="node"><title>AssignmentsController</title>
<polyline fill="none" stroke="black" points="233,-463.5 382,-463.5 "/>
<path fill="none" stroke="black" d="M382,-463.5C388,-463.5 394,-469.5 394,-475.5"/>
<polyline fill="none" stroke="black" points="394,-475.5 394,-661.5 "/>
<path fill="none" stroke="black" d="M394,-661.5C394,-667.5 388,-673.5 382,-673.5"/>
<polyline fill="none" stroke="black" points="382,-673.5 233,-673.5 "/>
<path fill="none" stroke="black" d="M233,-673.5C227,-673.5 221,-667.5 221,-661.5"/>
<polyline fill="none" stroke="black" points="221,-661.5 221,-475.5 "/>
<path fill="none" stroke="black" d="M221,-475.5C221,-469.5 227,-463.5 233,-463.5"/>
<text text-anchor="middle" x="307.5" y="-656.9" font-family="Times Roman,serif" font-size="14.00">AssignmentsController</text>
<polyline fill="none" stroke="black" points="221,-647.5 394,-647.5 "/>
<text text-anchor="start" x="229" y="-630.9" font-family="Times Roman,serif" font-size="14.00">create</text>
<text text-anchor="start" x="229" y="-612.9" font-family="Times Roman,serif" font-size="14.00">destroy</text>
<text text-anchor="start" x="229" y="-594.9" font-family="Times Roman,serif" font-size="14.00">edit</text>
<text text-anchor="start" x="229" y="-576.9" font-family="Times Roman,serif" font-size="14.00">index</text>
<text text-anchor="start" x="229" y="-558.9" font-family="Times Roman,serif" font-size="14.00">new</text>
<text text-anchor="start" x="229" y="-540.9" font-family="Times Roman,serif" font-size="14.00">show</text>
<text text-anchor="start" x="229" y="-522.9" font-family="Times Roman,serif" font-size="14.00">update</text>
<polyline fill="none" stroke="black" points="221,-513.5 394,-513.5 "/>
<polyline fill="none" stroke="black" points="221,-489.5 394,-489.5 "/>
<text text-anchor="start" x="229" y="-472.9" font-family="Times Roman,serif" font-size="14.00">_layout</text>
</g>
<!-- ConceptsController -->
<g id="node3" class="node"><title>ConceptsController</title>
<polyline fill="none" stroke="black" points="211,-177.5 362,-177.5 "/>
<path fill="none" stroke="black" d="M362,-177.5C368,-177.5 374,-183.5 374,-189.5"/>
<polyline fill="none" stroke="black" points="374,-189.5 374,-411.5 "/>
<path fill="none" stroke="black" d="M374,-411.5C374,-417.5 368,-423.5 362,-423.5"/>
<polyline fill="none" stroke="black" points="362,-423.5 211,-423.5 "/>
<path fill="none" stroke="black" d="M211,-423.5C205,-423.5 199,-417.5 199,-411.5"/>
<polyline fill="none" stroke="black" points="199,-411.5 199,-189.5 "/>
<path fill="none" stroke="black" d="M199,-189.5C199,-183.5 205,-177.5 211,-177.5"/>
<text text-anchor="middle" x="286.5" y="-406.9" font-family="Times Roman,serif" font-size="14.00">ConceptsController</text>
<polyline fill="none" stroke="black" points="199,-397.5 374,-397.5 "/>
<text text-anchor="start" x="207" y="-380.9" font-family="Times Roman,serif" font-size="14.00">create</text>
<text text-anchor="start" x="207" y="-362.9" font-family="Times Roman,serif" font-size="14.00">dashboard</text>
<text text-anchor="start" x="207" y="-344.9" font-family="Times Roman,serif" font-size="14.00">destroy</text>
<text text-anchor="start" x="207" y="-326.9" font-family="Times Roman,serif" font-size="14.00">edit</text>
<text text-anchor="start" x="207" y="-308.9" font-family="Times Roman,serif" font-size="14.00">index</text>
<text text-anchor="start" x="207" y="-290.9" font-family="Times Roman,serif" font-size="14.00">new</text>
<text text-anchor="start" x="207" y="-272.9" font-family="Times Roman,serif" font-size="14.00">parse_save_from_excel</text>
<text text-anchor="start" x="207" y="-254.9" font-family="Times Roman,serif" font-size="14.00">show</text>
<text text-anchor="start" x="207" y="-236.9" font-family="Times Roman,serif" font-size="14.00">update</text>
<polyline fill="none" stroke="black" points="199,-227.5 374,-227.5 "/>
<polyline fill="none" stroke="black" points="199,-203.5 374,-203.5 "/>
<text text-anchor="start" x="207" y="-186.9" font-family="Times Roman,serif" font-size="14.00">_layout</text>
</g>
<!-- WelcomeController -->
<g id="node4" class="node"><title>WelcomeController</title>
<polyline fill="none" stroke="black" points="453,-463.5 676,-463.5 "/>
<path fill="none" stroke="black" d="M676,-463.5C682,-463.5 688,-469.5 688,-475.5"/>
<polyline fill="none" stroke="black" points="688,-475.5 688,-589.5 "/>
<path fill="none" stroke="black" d="M688,-589.5C688,-595.5 682,-601.5 676,-601.5"/>
<polyline fill="none" stroke="black" points="676,-601.5 453,-601.5 "/>
<path fill="none" stroke="black" d="M453,-601.5C447,-601.5 441,-595.5 441,-589.5"/>
<polyline fill="none" stroke="black" points="441,-589.5 441,-475.5 "/>
<path fill="none" stroke="black" d="M441,-475.5C441,-469.5 447,-463.5 453,-463.5"/>
<text text-anchor="middle" x="564.5" y="-584.9" font-family="Times Roman,serif" font-size="14.00">WelcomeController</text>
<polyline fill="none" stroke="black" points="441,-575.5 688,-575.5 "/>
<text text-anchor="start" x="449" y="-558.9" font-family="Times Roman,serif" font-size="14.00">_one_time_conditions_valid_135?</text>
<text text-anchor="start" x="449" y="-540.9" font-family="Times Roman,serif" font-size="14.00">index</text>
<text text-anchor="start" x="449" y="-522.9" font-family="Times Roman,serif" font-size="14.00">user_view</text>
<polyline fill="none" stroke="black" points="441,-513.5 688,-513.5 "/>
<polyline fill="none" stroke="black" points="441,-489.5 688,-489.5 "/>
<text text-anchor="start" x="449" y="-472.9" font-family="Times Roman,serif" font-size="14.00">_layout</text>
</g>
<!-- CaseStudiesController -->
<g id="node5" class="node"><title>CaseStudiesController</title>
<polyline fill="none" stroke="black" points="13,-595.5 159,-595.5 "/>
<path fill="none" stroke="black" d="M159,-595.5C165,-595.5 171,-601.5 171,-607.5"/>
<polyline fill="none" stroke="black" points="171,-607.5 171,-793.5 "/>
<path fill="none" stroke="black" d="M171,-793.5C171,-799.5 165,-805.5 159,-805.5"/>
<polyline fill="none" stroke="black" points="159,-805.5 13,-805.5 "/>
<path fill="none" stroke="black" d="M13,-805.5C7,-805.5 1,-799.5 1,-793.5"/>
<polyline fill="none" stroke="black" points="1,-793.5 1,-607.5 "/>
<path fill="none" stroke="black" d="M1,-607.5C1,-601.5 7,-595.5 13,-595.5"/>
<text text-anchor="middle" x="86" y="-788.9" font-family="Times Roman,serif" font-size="14.00">CaseStudiesController</text>
<polyline fill="none" stroke="black" points="1,-779.5 171,-779.5 "/>
<text text-anchor="start" x="9" y="-762.9" font-family="Times Roman,serif" font-size="14.00">create</text>
<text text-anchor="start" x="9" y="-744.9" font-family="Times Roman,serif" font-size="14.00">destroy</text>
<text text-anchor="start" x="9" y="-726.9" font-family="Times Roman,serif" font-size="14.00">edit</text>
<text text-anchor="start" x="9" y="-708.9" font-family="Times Roman,serif" font-size="14.00">index</text>
<text text-anchor="start" x="9" y="-690.9" font-family="Times Roman,serif" font-size="14.00">new</text>
<text text-anchor="start" x="9" y="-672.9" font-family="Times Roman,serif" font-size="14.00">show</text>
<text text-anchor="start" x="9" y="-654.9" font-family="Times Roman,serif" font-size="14.00">update</text>
<polyline fill="none" stroke="black" points="1,-645.5 171,-645.5 "/>
<polyline fill="none" stroke="black" points="1,-621.5 171,-621.5 "/>
<text text-anchor="start" x="9" y="-604.9" font-family="Times Roman,serif" font-size="14.00">_layout</text>
</g>
<!-- DocuchecksController -->
<g id="node6" class="node"><title>DocuchecksController</title>
<polyline fill="none" stroke="black" points="13,-309.5 156,-309.5 "/>
<path fill="none" stroke="black" d="M156,-309.5C162,-309.5 168,-315.5 168,-321.5"/>
<polyline fill="none" stroke="black" points="168,-321.5 168,-507.5 "/>
<path fill="none" stroke="black" d="M168,-507.5C168,-513.5 162,-519.5 156,-519.5"/>
<polyline fill="none" stroke="black" points="156,-519.5 13,-519.5 "/>
<path fill="none" stroke="black" d="M13,-519.5C7,-519.5 1,-513.5 1,-507.5"/>
<polyline fill="none" stroke="black" points="1,-507.5 1,-321.5 "/>
<path fill="none" stroke="black" d="M1,-321.5C1,-315.5 7,-309.5 13,-309.5"/>
<text text-anchor="middle" x="84.5" y="-502.9" font-family="Times Roman,serif" font-size="14.00">DocuchecksController</text>
<polyline fill="none" stroke="black" points="1,-493.5 168,-493.5 "/>
<text text-anchor="start" x="9" y="-476.9" font-family="Times Roman,serif" font-size="14.00">create</text>
<text text-anchor="start" x="9" y="-458.9" font-family="Times Roman,serif" font-size="14.00">destroy</text>
<text text-anchor="start" x="9" y="-440.9" font-family="Times Roman,serif" font-size="14.00">edit</text>
<text text-anchor="start" x="9" y="-422.9" font-family="Times Roman,serif" font-size="14.00">index</text>
<text text-anchor="start" x="9" y="-404.9" font-family="Times Roman,serif" font-size="14.00">new</text>
<text text-anchor="start" x="9" y="-386.9" font-family="Times Roman,serif" font-size="14.00">show</text>
<text text-anchor="start" x="9" y="-368.9" font-family="Times Roman,serif" font-size="14.00">update</text>
<polyline fill="none" stroke="black" points="1,-359.5 168,-359.5 "/>
<polyline fill="none" stroke="black" points="1,-335.5 168,-335.5 "/>
<text text-anchor="start" x="9" y="-318.9" font-family="Times Roman,serif" font-size="14.00">_layout</text>
</g>
<!-- QuestionsController -->
<g id="node7" class="node"><title>QuestionsController</title>
<polyline fill="none" stroke="black" points="13,-67.5 144,-67.5 "/>
<path fill="none" stroke="black" d="M144,-67.5C150,-67.5 156,-73.5 156,-79.5"/>
<polyline fill="none" stroke="black" points="156,-79.5 156,-265.5 "/>
<path fill="none" stroke="black" d="M156,-265.5C156,-271.5 150,-277.5 144,-277.5"/>
<polyline fill="none" stroke="black" points="144,-277.5 13,-277.5 "/>
<path fill="none" stroke="black" d="M13,-277.5C7,-277.5 1,-271.5 1,-265.5"/>
<polyline fill="none" stroke="black" points="1,-265.5 1,-79.5 "/>
<path fill="none" stroke="black" d="M1,-79.5C1,-73.5 7,-67.5 13,-67.5"/>
<text text-anchor="middle" x="78.5" y="-260.9" font-family="Times Roman,serif" font-size="14.00">QuestionsController</text>
<polyline fill="none" stroke="black" points="1,-251.5 156,-251.5 "/>
<text text-anchor="start" x="9" y="-234.9" font-family="Times Roman,serif" font-size="14.00">create</text>
<text text-anchor="start" x="9" y="-216.9" font-family="Times Roman,serif" font-size="14.00">destroy</text>
<text text-anchor="start" x="9" y="-198.9" font-family="Times Roman,serif" font-size="14.00">edit</text>
<text text-anchor="start" x="9" y="-180.9" font-family="Times Roman,serif" font-size="14.00">index</text>
<text text-anchor="start" x="9" y="-162.9" font-family="Times Roman,serif" font-size="14.00">new</text>
<text text-anchor="start" x="9" y="-144.9" font-family="Times Roman,serif" font-size="14.00">show</text>
<text text-anchor="start" x="9" y="-126.9" font-family="Times Roman,serif" font-size="14.00">update</text>
<polyline fill="none" stroke="black" points="1,-117.5 156,-117.5 "/>
<polyline fill="none" stroke="black" points="1,-93.5 156,-93.5 "/>
<text text-anchor="start" x="9" y="-76.9" font-family="Times Roman,serif" font-size="14.00">_layout</text>
</g>
<!-- ProductsController -->
<g id="node8" class="node"><title>ProductsController</title>
<polyline fill="none" stroke="black" points="431,-177.5 582,-177.5 "/>
<path fill="none" stroke="black" d="M582,-177.5C588,-177.5 594,-183.5 594,-189.5"/>
<polyline fill="none" stroke="black" points="594,-189.5 594,-411.5 "/>
<path fill="none" stroke="black" d="M594,-411.5C594,-417.5 588,-423.5 582,-423.5"/>
<polyline fill="none" stroke="black" points="582,-423.5 431,-423.5 "/>
<path fill="none" stroke="black" d="M431,-423.5C425,-423.5 419,-417.5 419,-411.5"/>
<polyline fill="none" stroke="black" points="419,-411.5 419,-189.5 "/>
<path fill="none" stroke="black" d="M419,-189.5C419,-183.5 425,-177.5 431,-177.5"/>
<text text-anchor="middle" x="506.5" y="-406.9" font-family="Times Roman,serif" font-size="14.00">ProductsController</text>
<polyline fill="none" stroke="black" points="419,-397.5 594,-397.5 "/>
<text text-anchor="start" x="427" y="-380.9" font-family="Times Roman,serif" font-size="14.00">create</text>
<text text-anchor="start" x="427" y="-362.9" font-family="Times Roman,serif" font-size="14.00">dashboard</text>
<text text-anchor="start" x="427" y="-344.9" font-family="Times Roman,serif" font-size="14.00">destroy</text>
<text text-anchor="start" x="427" y="-326.9" font-family="Times Roman,serif" font-size="14.00">edit</text>
<text text-anchor="start" x="427" y="-308.9" font-family="Times Roman,serif" font-size="14.00">index</text>
<text text-anchor="start" x="427" y="-290.9" font-family="Times Roman,serif" font-size="14.00">new</text>
<text text-anchor="start" x="427" y="-272.9" font-family="Times Roman,serif" font-size="14.00">parse_save_from_excel</text>
<text text-anchor="start" x="427" y="-254.9" font-family="Times Roman,serif" font-size="14.00">show</text>
<text text-anchor="start" x="427" y="-236.9" font-family="Times Roman,serif" font-size="14.00">update</text>
<polyline fill="none" stroke="black" points="419,-227.5 594,-227.5 "/>
<polyline fill="none" stroke="black" points="419,-203.5 594,-203.5 "/>
<text text-anchor="start" x="427" y="-186.9" font-family="Times Roman,serif" font-size="14.00">_layout</text>
</g>
<!-- ApplicationController -->
<g id="node9" class="node"><title>ApplicationController</title>
<polyline fill="none" stroke="black" points="299,-1.5 513,-1.5 "/>
<path fill="none" stroke="black" d="M513,-1.5C519,-1.5 525,-7.5 525,-13.5"/>
<polyline fill="none" stroke="black" points="525,-13.5 525,-127.5 "/>
<path fill="none" stroke="black" d="M525,-127.5C525,-133.5 519,-139.5 513,-139.5"/>
<polyline fill="none" stroke="black" points="513,-139.5 299,-139.5 "/>
<path fill="none" stroke="black" d="M299,-139.5C293,-139.5 287,-133.5 287,-127.5"/>
<polyline fill="none" stroke="black" points="287,-127.5 287,-13.5 "/>
<path fill="none" stroke="black" d="M287,-13.5C287,-7.5 293,-1.5 299,-1.5"/>
<text text-anchor="middle" x="406" y="-122.9" font-family="Times Roman,serif" font-size="14.00">ApplicationController</text>
<polyline fill="none" stroke="black" points="287,-113.5 525,-113.5 "/>
<text text-anchor="start" x="295" y="-96.9" font-family="Times Roman,serif" font-size="14.00">_one_time_conditions_valid_62?</text>
<text text-anchor="start" x="295" y="-78.9" font-family="Times Roman,serif" font-size="14.00">_one_time_conditions_valid_64?</text>
<text text-anchor="start" x="295" y="-60.9" font-family="Times Roman,serif" font-size="14.00">after_sign_in_path_for</text>
<polyline fill="none" stroke="black" points="287,-51.5 525,-51.5 "/>
<polyline fill="none" stroke="black" points="287,-27.5 525,-27.5 "/>
<text text-anchor="start" x="295" y="-10.9" font-family="Times Roman,serif" font-size="14.00">_layout</text>
</g>
</g>
</svg>
