<?xml version="1.0" encoding="UTF-8" standalone="no"?>
<!DOCTYPE svg PUBLIC "-//W3C//DTD SVG 1.1//EN"
 "http://www.w3.org/Graphics/SVG/1.1/DTD/svg11.dtd">
<!-- Generated by graphviz version 2.26.3 (20100126.1600)
 -->
<!-- Title: models_diagram Pages: 1 -->
<svg width="1385pt" height="1160pt"
 viewBox="0.00 0.00 1385.00 1160.00" xmlns="http://www.w3.org/2000/svg" xmlns:xlink="http://www.w3.org/1999/xlink">
<g id="graph1" class="graph" transform="scale(1 1) rotate(0) translate(4 1156)">
<title>models_diagram</title>
<polygon fill="white" stroke="white" points="-4,5 -4,-1156 1382,-1156 1382,5 -4,5"/>
<!-- _diagram_info -->
<g id="node1" class="node"><title>_diagram_info</title>
<text text-anchor="start" x="178" y="-1101.8" font-family="Times Roman,serif" font-size="13.00">Models diagram</text>
<text text-anchor="start" x="178" y="-1084.8" font-family="Times Roman,serif" font-size="13.00">Date: Feb 28 2012 &#45; 17:52</text>
<text text-anchor="start" x="178" y="-1067.8" font-family="Times Roman,serif" font-size="13.00">Migration version: 20120228120121</text>
<text text-anchor="start" x="178" y="-1050.8" font-family="Times Roman,serif" font-size="13.00">Generated by RailRoady 1.0.7</text>
<text text-anchor="start" x="178" y="-1033.8" font-family="Times Roman,serif" font-size="13.00">http://railroady.prestonlee.com</text>
</g>
<!-- Concept -->
<g id="node2" class="node"><title>Concept</title>
<polyline fill="none" stroke="black" points="930.5,-1018 1071.5,-1018 "/>
<path fill="none" stroke="black" d="M1071.5,-1018C1077.5,-1018 1083.5,-1024 1083.5,-1030"/>
<polyline fill="none" stroke="black" points="1083.5,-1030 1083.5,-1112 "/>
<path fill="none" stroke="black" d="M1083.5,-1112C1083.5,-1118 1077.5,-1124 1071.5,-1124"/>
<polyline fill="none" stroke="black" points="1071.5,-1124 930.5,-1124 "/>
<path fill="none" stroke="black" d="M930.5,-1124C924.5,-1124 918.5,-1118 918.5,-1112"/>
<polyline fill="none" stroke="black" points="918.5,-1112 918.5,-1030 "/>
<path fill="none" stroke="black" d="M918.5,-1030C918.5,-1024 924.5,-1018 930.5,-1018"/>
<text text-anchor="middle" x="1001" y="-1107.4" font-family="Times Roman,serif" font-size="14.00">Concept</text>
<polyline fill="none" stroke="black" points="918.5,-1098 1083.5,-1098 "/>
<text text-anchor="start" x="926.5" y="-1081.4" font-family="Times Roman,serif" font-size="14.00">name :string</text>
<text text-anchor="start" x="926.5" y="-1063.4" font-family="Times Roman,serif" font-size="14.00">description :text</text>
<text text-anchor="start" x="926.5" y="-1045.4" font-family="Times Roman,serif" font-size="14.00">created_at :datetime</text>
<text text-anchor="start" x="926.5" y="-1027.4" font-family="Times Roman,serif" font-size="14.00">updated_at :datetime</text>
</g>
<!-- Question -->
<g id="node7" class="node"><title>Question</title>
<polyline fill="none" stroke="black" points="923.5,-721 1078.5,-721 "/>
<path fill="none" stroke="black" d="M1078.5,-721C1084.5,-721 1090.5,-727 1090.5,-733"/>
<polyline fill="none" stroke="black" points="1090.5,-733 1090.5,-941 "/>
<path fill="none" stroke="black" d="M1090.5,-941C1090.5,-947 1084.5,-953 1078.5,-953"/>
<polyline fill="none" stroke="black" points="1078.5,-953 923.5,-953 "/>
<path fill="none" stroke="black" d="M923.5,-953C917.5,-953 911.5,-947 911.5,-941"/>
<polyline fill="none" stroke="black" points="911.5,-941 911.5,-733 "/>
<path fill="none" stroke="black" d="M911.5,-733C911.5,-727 917.5,-721 923.5,-721"/>
<text text-anchor="middle" x="1001" y="-936.4" font-family="Times Roman,serif" font-size="14.00">Question</text>
<polyline fill="none" stroke="black" points="911.5,-927 1090.5,-927 "/>
<text text-anchor="start" x="919.5" y="-910.4" font-family="Times Roman,serif" font-size="14.00">statement :text</text>
<text text-anchor="start" x="919.5" y="-892.4" font-family="Times Roman,serif" font-size="14.00">optiona :string</text>
<text text-anchor="start" x="919.5" y="-874.4" font-family="Times Roman,serif" font-size="14.00">optionb :string</text>
<text text-anchor="start" x="919.5" y="-856.4" font-family="Times Roman,serif" font-size="14.00">optionc :string</text>
<text text-anchor="start" x="919.5" y="-838.4" font-family="Times Roman,serif" font-size="14.00">optiond :string</text>
<text text-anchor="start" x="919.5" y="-820.4" font-family="Times Roman,serif" font-size="14.00">optionacorrect :boolean</text>
<text text-anchor="start" x="919.5" y="-802.4" font-family="Times Roman,serif" font-size="14.00">optionbcorrect :boolean</text>
<text text-anchor="start" x="919.5" y="-784.4" font-family="Times Roman,serif" font-size="14.00">optionccorrect :boolean</text>
<text text-anchor="start" x="919.5" y="-766.4" font-family="Times Roman,serif" font-size="14.00">optiondcorrect :boolean</text>
<text text-anchor="start" x="919.5" y="-748.4" font-family="Times Roman,serif" font-size="14.00">created_at :datetime</text>
<text text-anchor="start" x="919.5" y="-730.4" font-family="Times Roman,serif" font-size="14.00">updated_at :datetime</text>
</g>
<!-- Concept&#45;&gt;Question -->
<g id="edge6" class="edge"><title>Concept&#45;&gt;Question</title>
<path fill="none" stroke="#4451a9" d="M1001,-1009.58C1001,-995.234 1001,-979.438 1001,-963.405"/>
<ellipse fill="none" stroke="#4451a9" cx="1001" cy="-1013.9" rx="4" ry="4"/>
<polygon fill="#4451a9" stroke="#4451a9" points="1001,-963.403 1005.5,-953.403 1001,-958.403 1001,-953.403 1001,-953.403 1001,-953.403 1001,-958.403 996.5,-953.403 1001,-963.403 1001,-963.403"/>
</g>
<!-- Slide -->
<g id="node8" class="node"><title>Slide</title>
<polyline fill="none" stroke="black" points="1119.5,-793 1260.5,-793 "/>
<path fill="none" stroke="black" d="M1260.5,-793C1266.5,-793 1272.5,-799 1272.5,-805"/>
<polyline fill="none" stroke="black" points="1272.5,-805 1272.5,-869 "/>
<path fill="none" stroke="black" d="M1272.5,-869C1272.5,-875 1266.5,-881 1260.5,-881"/>
<polyline fill="none" stroke="black" points="1260.5,-881 1119.5,-881 "/>
<path fill="none" stroke="black" d="M1119.5,-881C1113.5,-881 1107.5,-875 1107.5,-869"/>
<polyline fill="none" stroke="black" points="1107.5,-869 1107.5,-805 "/>
<path fill="none" stroke="black" d="M1107.5,-805C1107.5,-799 1113.5,-793 1119.5,-793"/>
<text text-anchor="middle" x="1190" y="-864.4" font-family="Times Roman,serif" font-size="14.00">Slide</text>
<polyline fill="none" stroke="black" points="1107.5,-855 1272.5,-855 "/>
<text text-anchor="start" x="1115.5" y="-838.4" font-family="Times Roman,serif" font-size="14.00">html_block :text</text>
<text text-anchor="start" x="1115.5" y="-820.4" font-family="Times Roman,serif" font-size="14.00">created_at :datetime</text>
<text text-anchor="start" x="1115.5" y="-802.4" font-family="Times Roman,serif" font-size="14.00">updated_at :datetime</text>
</g>
<!-- Concept&#45;&gt;Slide -->
<g id="edge4" class="edge"><title>Concept&#45;&gt;Slide</title>
<path fill="none" stroke="#ac068b" d="M1051.46,-1011.61C1066.86,-993.253 1083.75,-972.894 1099,-954 1115.98,-932.965 1134.35,-909.491 1150.11,-889.122"/>
<ellipse fill="none" stroke="#ac068b" cx="1048.87" cy="-1014.69" rx="4.00002" ry="4.00002"/>
<polygon fill="#ac068b" stroke="#ac068b" points="1150.12,-889.102 1159.8,-883.938 1153.18,-885.145 1156.24,-881.188 1156.24,-881.188 1156.24,-881.188 1153.18,-885.145 1152.67,-878.437 1150.12,-889.102 1150.12,-889.102"/>
</g>
<!-- Product -->
<g id="node13" class="node"><title>Product</title>
<polyline fill="none" stroke="black" points="559.5,-793 700.5,-793 "/>
<path fill="none" stroke="black" d="M700.5,-793C706.5,-793 712.5,-799 712.5,-805"/>
<polyline fill="none" stroke="black" points="712.5,-805 712.5,-869 "/>
<path fill="none" stroke="black" d="M712.5,-869C712.5,-875 706.5,-881 700.5,-881"/>
<polyline fill="none" stroke="black" points="700.5,-881 559.5,-881 "/>
<path fill="none" stroke="black" d="M559.5,-881C553.5,-881 547.5,-875 547.5,-869"/>
<polyline fill="none" stroke="black" points="547.5,-869 547.5,-805 "/>
<path fill="none" stroke="black" d="M547.5,-805C547.5,-799 553.5,-793 559.5,-793"/>
<text text-anchor="middle" x="630" y="-864.4" font-family="Times Roman,serif" font-size="14.00">Product</text>
<polyline fill="none" stroke="black" points="547.5,-855 712.5,-855 "/>
<text text-anchor="start" x="555.5" y="-838.4" font-family="Times Roman,serif" font-size="14.00">name :string</text>
<text text-anchor="start" x="555.5" y="-820.4" font-family="Times Roman,serif" font-size="14.00">created_at :datetime</text>
<text text-anchor="start" x="555.5" y="-802.4" font-family="Times Roman,serif" font-size="14.00">updated_at :datetime</text>
</g>
<!-- Concept&#45;&gt;Product -->
<g id="edge2" class="edge"><title>Concept&#45;&gt;Product</title>
<path fill="none" stroke="#50d411" d="M908.432,-1045.62C850.645,-1026.71 776.884,-996.728 721,-954 697.979,-936.398 677.603,-911.642 661.999,-889.432"/>
<polygon fill="#50d411" stroke="#50d411" points="908.774,-1045.73 916.916,-1053.08 913.534,-1047.27 918.294,-1048.8 918.294,-1048.8 918.294,-1048.8 913.534,-1047.27 919.671,-1044.51 908.774,-1045.73 908.774,-1045.73"/>
<polygon fill="#50d411" stroke="#50d411" points="661.915,-889.309 659.967,-878.518 659.086,-885.187 656.256,-881.064 656.256,-881.064 656.256,-881.064 659.086,-885.187 652.546,-883.611 661.915,-889.309 661.915,-889.309"/>
</g>
<!-- Component -->
<g id="node3" class="node"><title>Component</title>
<polyline fill="none" stroke="black" points="121.5,-325 262.5,-325 "/>
<path fill="none" stroke="black" d="M262.5,-325C268.5,-325 274.5,-331 274.5,-337"/>
<polyline fill="none" stroke="black" points="274.5,-337 274.5,-401 "/>
<path fill="none" stroke="black" d="M274.5,-401C274.5,-407 268.5,-413 262.5,-413"/>
<polyline fill="none" stroke="black" points="262.5,-413 121.5,-413 "/>
<path fill="none" stroke="black" d="M121.5,-413C115.5,-413 109.5,-407 109.5,-401"/>
<polyline fill="none" stroke="black" points="109.5,-401 109.5,-337 "/>
<path fill="none" stroke="black" d="M109.5,-337C109.5,-331 115.5,-325 121.5,-325"/>
<text text-anchor="middle" x="192" y="-396.4" font-family="Times Roman,serif" font-size="14.00">Component</text>
<polyline fill="none" stroke="black" points="109.5,-387 274.5,-387 "/>
<text text-anchor="start" x="117.5" y="-370.4" font-family="Times Roman,serif" font-size="14.00">name :string</text>
<text text-anchor="start" x="117.5" y="-352.4" font-family="Times Roman,serif" font-size="14.00">created_at :datetime</text>
<text text-anchor="start" x="117.5" y="-334.4" font-family="Times Roman,serif" font-size="14.00">updated_at :datetime</text>
</g>
<!-- BlankSection -->
<g id="node10" class="node"><title>BlankSection</title>
<polyline fill="none" stroke="black" points="11.5,-145 152.5,-145 "/>
<path fill="none" stroke="black" d="M152.5,-145C158.5,-145 164.5,-151 164.5,-157"/>
<polyline fill="none" stroke="black" points="164.5,-157 164.5,-275 "/>
<path fill="none" stroke="black" d="M164.5,-275C164.5,-281 158.5,-287 152.5,-287"/>
<polyline fill="none" stroke="black" points="152.5,-287 11.5,-287 "/>
<path fill="none" stroke="black" d="M11.5,-287C5.5,-287 -0.5,-281 -0.5,-275"/>
<polyline fill="none" stroke="black" points="-0.5,-275 -0.5,-157 "/>
<path fill="none" stroke="black" d="M-0.5,-157C-0.5,-151 5.5,-145 11.5,-145"/>
<text text-anchor="middle" x="82" y="-270.4" font-family="Times Roman,serif" font-size="14.00">BlankSection</text>
<polyline fill="none" stroke="black" points="-0.5,-261 164.5,-261 "/>
<text text-anchor="start" x="7.5" y="-244.4" font-family="Times Roman,serif" font-size="14.00">xpos :integer</text>
<text text-anchor="start" x="7.5" y="-226.4" font-family="Times Roman,serif" font-size="14.00">ypos :integer</text>
<text text-anchor="start" x="7.5" y="-208.4" font-family="Times Roman,serif" font-size="14.00">width :integer</text>
<text text-anchor="start" x="7.5" y="-190.4" font-family="Times Roman,serif" font-size="14.00">height :integer</text>
<text text-anchor="start" x="7.5" y="-172.4" font-family="Times Roman,serif" font-size="14.00">created_at :datetime</text>
<text text-anchor="start" x="7.5" y="-154.4" font-family="Times Roman,serif" font-size="14.00">updated_at :datetime</text>
</g>
<!-- Component&#45;&gt;BlankSection -->
<g id="edge10" class="edge"><title>Component&#45;&gt;BlankSection</title>
<path fill="none" stroke="#93f263" d="M155.349,-318.022C150.136,-310.771 144.674,-303.175 139.184,-295.537"/>
<ellipse fill="none" stroke="#93f263" cx="157.848" cy="-321.498" rx="4.00002" ry="4.00002"/>
<polygon fill="#93f263" stroke="#93f263" points="139.062,-295.368 136.879,-284.622 136.144,-291.309 133.225,-287.249 133.225,-287.249 133.225,-287.249 136.144,-291.309 129.571,-289.876 139.062,-295.368 139.062,-295.368"/>
</g>
<!-- Example -->
<g id="node18" class="node"><title>Example</title>
<polyline fill="none" stroke="black" points="193.5,-172 414.5,-172 "/>
<path fill="none" stroke="black" d="M414.5,-172C420.5,-172 426.5,-178 426.5,-184"/>
<polyline fill="none" stroke="black" points="426.5,-184 426.5,-248 "/>
<path fill="none" stroke="black" d="M426.5,-248C426.5,-254 420.5,-260 414.5,-260"/>
<polyline fill="none" stroke="black" points="414.5,-260 193.5,-260 "/>
<path fill="none" stroke="black" d="M193.5,-260C187.5,-260 181.5,-254 181.5,-248"/>
<polyline fill="none" stroke="black" points="181.5,-248 181.5,-184 "/>
<path fill="none" stroke="black" d="M181.5,-184C181.5,-178 187.5,-172 193.5,-172"/>
<text text-anchor="middle" x="304" y="-243.4" font-family="Times Roman,serif" font-size="14.00">Example</text>
<polyline fill="none" stroke="black" points="181.5,-234 426.5,-234 "/>
<text text-anchor="start" x="189.5" y="-217.4" font-family="Times Roman,serif" font-size="14.00">example_image_file_name :string</text>
<text text-anchor="start" x="189.5" y="-199.4" font-family="Times Roman,serif" font-size="14.00">created_at :datetime</text>
<text text-anchor="start" x="189.5" y="-181.4" font-family="Times Roman,serif" font-size="14.00">updated_at :datetime</text>
</g>
<!-- Component&#45;&gt;Example -->
<g id="edge8" class="edge"><title>Component&#45;&gt;Example</title>
<path fill="none" stroke="#80d428" d="M229.361,-317.962C241.031,-302.019 253.921,-284.411 265.658,-268.378"/>
<ellipse fill="none" stroke="#80d428" cx="226.758" cy="-321.518" rx="4.00002" ry="4.00002"/>
<polygon fill="#80d428" stroke="#80d428" points="265.771,-268.224 275.309,-262.813 268.724,-264.189 271.678,-260.154 271.678,-260.154 271.678,-260.154 268.724,-264.189 268.047,-257.496 265.771,-268.224 265.771,-268.224"/>
</g>
<!-- Docucheck -->
<g id="node4" class="node"><title>Docucheck</title>
<polyline fill="none" stroke="black" points="455.5,-172 596.5,-172 "/>
<path fill="none" stroke="black" d="M596.5,-172C602.5,-172 608.5,-178 608.5,-184"/>
<polyline fill="none" stroke="black" points="608.5,-184 608.5,-248 "/>
<path fill="none" stroke="black" d="M608.5,-248C608.5,-254 602.5,-260 596.5,-260"/>
<polyline fill="none" stroke="black" points="596.5,-260 455.5,-260 "/>
<path fill="none" stroke="black" d="M455.5,-260C449.5,-260 443.5,-254 443.5,-248"/>
<polyline fill="none" stroke="black" points="443.5,-248 443.5,-184 "/>
<path fill="none" stroke="black" d="M443.5,-184C443.5,-178 449.5,-172 455.5,-172"/>
<text text-anchor="middle" x="526" y="-243.4" font-family="Times Roman,serif" font-size="14.00">Docucheck</text>
<polyline fill="none" stroke="black" points="443.5,-234 608.5,-234 "/>
<text text-anchor="start" x="451.5" y="-217.4" font-family="Times Roman,serif" font-size="14.00">score :integer</text>
<text text-anchor="start" x="451.5" y="-199.4" font-family="Times Roman,serif" font-size="14.00">created_at :datetime</text>
<text text-anchor="start" x="451.5" y="-181.4" font-family="Times Roman,serif" font-size="14.00">updated_at :datetime</text>
</g>
<!-- FilledSection -->
<g id="node14" class="node"><title>FilledSection</title>
<polyline fill="none" stroke="black" points="217,-1 391,-1 "/>
<path fill="none" stroke="black" d="M391,-1C397,-1 403,-7 403,-13"/>
<polyline fill="none" stroke="black" points="403,-13 403,-95 "/>
<path fill="none" stroke="black" d="M403,-95C403,-101 397,-107 391,-107"/>
<polyline fill="none" stroke="black" points="391,-107 217,-107 "/>
<path fill="none" stroke="black" d="M217,-107C211,-107 205,-101 205,-95"/>
<polyline fill="none" stroke="black" points="205,-95 205,-13 "/>
<path fill="none" stroke="black" d="M205,-13C205,-7 211,-1 217,-1"/>
<text text-anchor="middle" x="304" y="-90.4" font-family="Times Roman,serif" font-size="14.00">FilledSection</text>
<polyline fill="none" stroke="black" points="205,-81 403,-81 "/>
<text text-anchor="start" x="213" y="-64.4" font-family="Times Roman,serif" font-size="14.00">has_no_error :boolean</text>
<text text-anchor="start" x="213" y="-46.4" font-family="Times Roman,serif" font-size="14.00">marked_correctly :boolean</text>
<text text-anchor="start" x="213" y="-28.4" font-family="Times Roman,serif" font-size="14.00">created_at :datetime</text>
<text text-anchor="start" x="213" y="-10.4" font-family="Times Roman,serif" font-size="14.00">updated_at :datetime</text>
</g>
<!-- Docucheck&#45;&gt;FilledSection -->
<g id="edge12" class="edge"><title>Docucheck&#45;&gt;FilledSection</title>
<path fill="none" stroke="#87ee68" d="M465.104,-166.902C455.131,-159.126 444.84,-151.26 435,-144 421.172,-133.798 406.319,-123.233 391.759,-113.086"/>
<ellipse fill="none" stroke="#87ee68" cx="468.455" cy="-169.525" rx="4.00002" ry="4.00002"/>
<polygon fill="#87ee68" stroke="#87ee68" points="391.444,-112.867 385.795,-103.469 387.337,-110.016 383.229,-107.165 383.229,-107.165 383.229,-107.165 387.337,-110.016 380.664,-110.862 391.444,-112.867 391.444,-112.867"/>
</g>
<!-- Docket -->
<g id="node5" class="node"><title>Docket</title>
<polyline fill="none" stroke="black" points="449.5,-1027 590.5,-1027 "/>
<path fill="none" stroke="black" d="M590.5,-1027C596.5,-1027 602.5,-1033 602.5,-1039"/>
<polyline fill="none" stroke="black" points="602.5,-1039 602.5,-1103 "/>
<path fill="none" stroke="black" d="M602.5,-1103C602.5,-1109 596.5,-1115 590.5,-1115"/>
<polyline fill="none" stroke="black" points="590.5,-1115 449.5,-1115 "/>
<path fill="none" stroke="black" d="M449.5,-1115C443.5,-1115 437.5,-1109 437.5,-1103"/>
<polyline fill="none" stroke="black" points="437.5,-1103 437.5,-1039 "/>
<path fill="none" stroke="black" d="M437.5,-1039C437.5,-1033 443.5,-1027 449.5,-1027"/>
<text text-anchor="middle" x="520" y="-1098.4" font-family="Times Roman,serif" font-size="14.00">Docket</text>
<polyline fill="none" stroke="black" points="437.5,-1089 602.5,-1089 "/>
<text text-anchor="start" x="445.5" y="-1072.4" font-family="Times Roman,serif" font-size="14.00">name :string</text>
<text text-anchor="start" x="445.5" y="-1054.4" font-family="Times Roman,serif" font-size="14.00">created_at :datetime</text>
<text text-anchor="start" x="445.5" y="-1036.4" font-family="Times Roman,serif" font-size="14.00">updated_at :datetime</text>
</g>
<!-- Docket&#45;&gt;Question -->
<g id="edge22" class="edge"><title>Docket&#45;&gt;Question</title>
<path fill="none" stroke="#029570" d="M611.116,-1058.3C692.948,-1043.54 813.616,-1013.2 903,-954 903.09,-953.941 903.179,-953.881 903.269,-953.821"/>
<ellipse fill="none" stroke="#029570" cx="606.764" cy="-1059.07" rx="4.00001" ry="4.00001"/>
<polygon fill="#029570" stroke="#029570" points="903.34,-953.771 914.099,-951.654 907.417,-950.878 911.495,-947.984 911.495,-947.984 911.495,-947.984 907.417,-950.878 908.891,-944.314 903.34,-953.771 903.34,-953.771"/>
</g>
<!-- ReferenceSet -->
<g id="node11" class="node"><title>ReferenceSet</title>
<polyline fill="none" stroke="black" points="303.5,-325 444.5,-325 "/>
<path fill="none" stroke="black" d="M444.5,-325C450.5,-325 456.5,-331 456.5,-337"/>
<polyline fill="none" stroke="black" points="456.5,-337 456.5,-401 "/>
<path fill="none" stroke="black" d="M456.5,-401C456.5,-407 450.5,-413 444.5,-413"/>
<polyline fill="none" stroke="black" points="444.5,-413 303.5,-413 "/>
<path fill="none" stroke="black" d="M303.5,-413C297.5,-413 291.5,-407 291.5,-401"/>
<polyline fill="none" stroke="black" points="291.5,-401 291.5,-337 "/>
<path fill="none" stroke="black" d="M291.5,-337C291.5,-331 297.5,-325 303.5,-325"/>
<text text-anchor="middle" x="374" y="-396.4" font-family="Times Roman,serif" font-size="14.00">ReferenceSet</text>
<polyline fill="none" stroke="black" points="291.5,-387 456.5,-387 "/>
<text text-anchor="start" x="299.5" y="-370.4" font-family="Times Roman,serif" font-size="14.00">name :string</text>
<text text-anchor="start" x="299.5" y="-352.4" font-family="Times Roman,serif" font-size="14.00">created_at :datetime</text>
<text text-anchor="start" x="299.5" y="-334.4" font-family="Times Roman,serif" font-size="14.00">updated_at :datetime</text>
</g>
<!-- Docket&#45;&gt;ReferenceSet -->
<g id="edge18" class="edge"><title>Docket&#45;&gt;ReferenceSet</title>
<path fill="none" stroke="#f36317" d="M469.863,-1019.84C457.28,-1008.91 443.273,-998.207 429,-990 384.405,-964.36 362.781,-981.006 319,-954 175.096,-865.236 115.413,-840.328 51,-684 11.3796,-587.843 -16.6665,-528.976 51,-450 83.1554,-412.47 217.936,-427.868 281.45,-413.797"/>
<polygon fill="#f36317" stroke="#f36317" points="470.039,-1019.99 474.509,-1030.01 473.771,-1023.32 477.504,-1026.65 477.504,-1026.65 477.504,-1026.65 473.771,-1023.32 480.498,-1023.29 470.039,-1019.99 470.039,-1019.99"/>
<polygon fill="#f36317" stroke="#f36317" points="281.701,-413.73 292.522,-415.507 286.533,-412.444 291.365,-411.159 291.365,-411.159 291.365,-411.159 286.533,-412.444 290.208,-406.81 281.701,-413.73 281.701,-413.73"/>
</g>
<!-- Docket&#45;&gt;Product -->
<g id="edge14" class="edge"><title>Docket&#45;&gt;Product</title>
<path fill="none" stroke="#0d9892" d="M544.962,-1017.9C562.849,-979.848 586.85,-928.792 604.792,-890.624"/>
<polygon fill="#0d9892" stroke="#0d9892" points="544.944,-1017.94 536.618,-1025.07 542.817,-1022.46 540.69,-1026.99 540.69,-1026.99 540.69,-1026.99 542.817,-1022.46 544.763,-1028.9 544.944,-1017.94 544.944,-1017.94"/>
<polygon fill="#0d9892" stroke="#0d9892" points="604.962,-890.263 613.288,-883.128 607.089,-885.738 609.216,-881.213 609.216,-881.213 609.216,-881.213 607.089,-885.738 605.143,-879.299 604.962,-890.263 604.962,-890.263"/>
</g>
<!-- Document -->
<g id="node15" class="node"><title>Document</title>
<polyline fill="none" stroke="black" points="339.5,-793 480.5,-793 "/>
<path fill="none" stroke="black" d="M480.5,-793C486.5,-793 492.5,-799 492.5,-805"/>
<polyline fill="none" stroke="black" points="492.5,-805 492.5,-869 "/>
<path fill="none" stroke="black" d="M492.5,-869C492.5,-875 486.5,-881 480.5,-881"/>
<polyline fill="none" stroke="black" points="480.5,-881 339.5,-881 "/>
<path fill="none" stroke="black" d="M339.5,-881C333.5,-881 327.5,-875 327.5,-869"/>
<polyline fill="none" stroke="black" points="327.5,-869 327.5,-805 "/>
<path fill="none" stroke="black" d="M327.5,-805C327.5,-799 333.5,-793 339.5,-793"/>
<text text-anchor="middle" x="410" y="-864.4" font-family="Times Roman,serif" font-size="14.00">Document</text>
<polyline fill="none" stroke="black" points="327.5,-855 492.5,-855 "/>
<text text-anchor="start" x="335.5" y="-838.4" font-family="Times Roman,serif" font-size="14.00">name :string</text>
<text text-anchor="start" x="335.5" y="-820.4" font-family="Times Roman,serif" font-size="14.00">created_at :datetime</text>
<text text-anchor="start" x="335.5" y="-802.4" font-family="Times Roman,serif" font-size="14.00">updated_at :datetime</text>
</g>
<!-- Docket&#45;&gt;Document -->
<g id="edge16" class="edge"><title>Docket&#45;&gt;Document</title>
<path fill="none" stroke="#e36230" d="M495.038,-1017.9C477.151,-979.848 453.15,-928.792 435.208,-890.624"/>
<polygon fill="#e36230" stroke="#e36230" points="495.056,-1017.94 495.237,-1028.9 497.183,-1022.46 499.31,-1026.99 499.31,-1026.99 499.31,-1026.99 497.183,-1022.46 503.382,-1025.07 495.056,-1017.94 495.056,-1017.94"/>
<polygon fill="#e36230" stroke="#e36230" points="435.038,-890.263 434.857,-879.299 432.911,-885.738 430.784,-881.213 430.784,-881.213 430.784,-881.213 432.911,-885.738 426.712,-883.128 435.038,-890.263 435.038,-890.263"/>
</g>
<!-- CaseStudy -->
<g id="node19" class="node"><title>CaseStudy</title>
<polyline fill="none" stroke="black" points="523.5,-514 664.5,-514 "/>
<path fill="none" stroke="black" d="M664.5,-514C670.5,-514 676.5,-520 676.5,-526"/>
<polyline fill="none" stroke="black" points="676.5,-526 676.5,-608 "/>
<path fill="none" stroke="black" d="M676.5,-608C676.5,-614 670.5,-620 664.5,-620"/>
<polyline fill="none" stroke="black" points="664.5,-620 523.5,-620 "/>
<path fill="none" stroke="black" d="M523.5,-620C517.5,-620 511.5,-614 511.5,-608"/>
<polyline fill="none" stroke="black" points="511.5,-608 511.5,-526 "/>
<path fill="none" stroke="black" d="M511.5,-526C511.5,-520 517.5,-514 523.5,-514"/>
<text text-anchor="middle" x="594" y="-603.4" font-family="Times Roman,serif" font-size="14.00">CaseStudy</text>
<polyline fill="none" stroke="black" points="511.5,-594 676.5,-594 "/>
<text text-anchor="start" x="519.5" y="-577.4" font-family="Times Roman,serif" font-size="14.00">name :string</text>
<text text-anchor="start" x="519.5" y="-559.4" font-family="Times Roman,serif" font-size="14.00">briefing :text</text>
<text text-anchor="start" x="519.5" y="-541.4" font-family="Times Roman,serif" font-size="14.00">created_at :datetime</text>
<text text-anchor="start" x="519.5" y="-523.4" font-family="Times Roman,serif" font-size="14.00">updated_at :datetime</text>
</g>
<!-- Docket&#45;&gt;CaseStudy -->
<g id="edge20" class="edge"><title>Docket&#45;&gt;CaseStudy</title>
<path fill="none" stroke="#0eb82e" d="M518.093,-1016.72C516.752,-947.217 518.083,-823.406 539,-720 545.182,-689.436 556.272,-656.758 566.881,-629.483"/>
<polygon fill="#0eb82e" stroke="#0eb82e" points="518.099,-1016.99 513.819,-1027.08 518.208,-1021.98 518.318,-1026.98 518.318,-1026.98 518.318,-1026.98 518.208,-1021.98 522.817,-1026.88 518.099,-1016.99 518.099,-1016.99"/>
<polygon fill="#0eb82e" stroke="#0eb82e" points="566.925,-629.371 574.789,-621.729 568.765,-624.722 570.605,-620.073 570.605,-620.073 570.605,-620.073 568.765,-624.722 566.421,-618.417 566.925,-629.371 566.925,-629.371"/>
</g>
<!-- Page -->
<g id="node6" class="node"><title>Page</title>
<polyline fill="none" stroke="black" points="71.5,-505 262.5,-505 "/>
<path fill="none" stroke="black" d="M262.5,-505C268.5,-505 274.5,-511 274.5,-517"/>
<polyline fill="none" stroke="black" points="274.5,-517 274.5,-617 "/>
<path fill="none" stroke="black" d="M274.5,-617C274.5,-623 268.5,-629 262.5,-629"/>
<polyline fill="none" stroke="black" points="262.5,-629 71.5,-629 "/>
<path fill="none" stroke="black" d="M71.5,-629C65.5,-629 59.5,-623 59.5,-617"/>
<polyline fill="none" stroke="black" points="59.5,-617 59.5,-517 "/>
<path fill="none" stroke="black" d="M59.5,-517C59.5,-511 65.5,-505 71.5,-505"/>
<text text-anchor="middle" x="167" y="-612.4" font-family="Times Roman,serif" font-size="14.00">Page</text>
<polyline fill="none" stroke="black" points="59.5,-603 274.5,-603 "/>
<text text-anchor="start" x="67.5" y="-586.4" font-family="Times Roman,serif" font-size="14.00">name :string</text>
<text text-anchor="start" x="67.5" y="-568.4" font-family="Times Roman,serif" font-size="14.00">created_at :datetime</text>
<text text-anchor="start" x="67.5" y="-550.4" font-family="Times Roman,serif" font-size="14.00">updated_at :datetime</text>
<text text-anchor="start" x="67.5" y="-532.4" font-family="Times Roman,serif" font-size="14.00">sample_file_name :string</text>
<text text-anchor="start" x="67.5" y="-514.4" font-family="Times Roman,serif" font-size="14.00">blank_form_file_name :string</text>
</g>
<!-- Page&#45;&gt;BlankSection -->
<g id="edge24" class="edge"><title>Page&#45;&gt;BlankSection</title>
<path fill="none" stroke="#3d76c9" d="M131.561,-497.45C119.977,-471.831 108.239,-442.179 101,-414 91.3003,-376.243 86.4604,-333.284 84.0806,-297.053"/>
<ellipse fill="none" stroke="#3d76c9" cx="133.316" cy="-501.277" rx="4.00002" ry="4.00002"/>
<polygon fill="#3d76c9" stroke="#3d76c9" points="84.0777,-297.004 87.9643,-286.75 83.7751,-292.013 83.4726,-287.022 83.4726,-287.022 83.4726,-287.022 83.7751,-292.013 78.9808,-287.294 84.0777,-297.004 84.0777,-297.004"/>
</g>
<!-- QuizQuestion -->
<g id="node36" class="node"><title>QuizQuestion</title>
<ellipse fill="none" stroke="black" cx="903" cy="-54" rx="77.9889" ry="18.3848"/>
<text text-anchor="middle" x="903" y="-50.4" font-family="Times Roman,serif" font-size="14.00">QuizQuestion</text>
</g>
<!-- Question&#45;&gt;QuizQuestion -->
<g id="edge26" class="edge"><title>Question&#45;&gt;QuizQuestion</title>
<path fill="none" stroke="#dcfbad" d="M987.582,-712.712C979.207,-636.777 967.966,-537.722 957,-450 939.756,-312.061 916.429,-147.487 907.102,-82.4513"/>
<ellipse fill="none" stroke="#dcfbad" cx="988.048" cy="-716.943" rx="4.00001" ry="4.00001"/>
<polygon fill="#dcfbad" stroke="#dcfbad" points="907.099,-82.4352 910.132,-71.897 906.389,-77.486 905.678,-72.5368 905.678,-72.5368 905.678,-72.5368 906.389,-77.486 901.223,-73.1767 907.099,-82.4352 907.099,-82.4352"/>
</g>
<!-- Ability -->
<g id="node9" class="node"><title>Ability</title>
<polygon fill="none" stroke="black" points="1101,-1045 1101,-1097 1161,-1097 1161,-1045 1101,-1045"/>
<text text-anchor="middle" x="1131" y="-1080.4" font-family="Times Roman,serif" font-size="14.00">Ability</text>
<polyline fill="none" stroke="black" points="1101,-1071 1161,-1071 "/>
<text text-anchor="middle" x="1131" y="-1054.4" font-family="Times Roman,serif" font-size="14.00"> </text>
</g>
<!-- BlankSection&#45;&gt;FilledSection -->
<g id="edge28" class="edge"><title>BlankSection&#45;&gt;FilledSection</title>
<path fill="none" stroke="#00f6ca" d="M171.187,-145.341C171.793,-144.892 172.397,-144.445 173,-144 186.828,-133.798 201.681,-123.233 216.241,-113.086"/>
<ellipse fill="none" stroke="#00f6ca" cx="167.849" cy="-147.834" rx="4.00002" ry="4.00002"/>
<polygon fill="#00f6ca" stroke="#00f6ca" points="216.556,-112.867 227.336,-110.862 220.663,-110.016 224.771,-107.165 224.771,-107.165 224.771,-107.165 220.663,-110.016 222.205,-103.469 216.556,-112.867 216.556,-112.867"/>
</g>
<!-- ReferenceSet&#45;&gt;Docucheck -->
<g id="edge32" class="edge"><title>ReferenceSet&#45;&gt;Docucheck</title>
<path fill="none" stroke="#8d2dfb" d="M423.727,-318.945C440.067,-302.498 458.255,-284.19 474.709,-267.628"/>
<ellipse fill="none" stroke="#8d2dfb" cx="420.784" cy="-321.908" rx="4.00002" ry="4.00002"/>
<polygon fill="#8d2dfb" stroke="#8d2dfb" points="475.086,-267.249 485.327,-263.326 478.61,-263.702 482.134,-260.154 482.134,-260.154 482.134,-260.154 478.61,-263.702 478.942,-256.983 475.086,-267.249 475.086,-267.249"/>
</g>
<!-- ReferenceSet&#45;&gt;Example -->
<g id="edge30" class="edge"><title>ReferenceSet&#45;&gt;Example</title>
<path fill="none" stroke="#18c364" d="M350.424,-317.469C343.378,-302.068 335.638,-285.151 328.532,-269.62"/>
<ellipse fill="none" stroke="#18c364" cx="352.089" cy="-321.109" rx="4.00002" ry="4.00002"/>
<polygon fill="#18c364" stroke="#18c364" points="328.362,-269.248 328.293,-258.282 326.282,-264.701 324.201,-260.154 324.201,-260.154 324.201,-260.154 326.282,-264.701 320.109,-262.027 328.362,-269.248 328.362,-269.248"/>
</g>
<!-- Role -->
<g id="node12" class="node"><title>Role</title>
<polyline fill="none" stroke="black" points="741.5,-793 882.5,-793 "/>
<path fill="none" stroke="black" d="M882.5,-793C888.5,-793 894.5,-799 894.5,-805"/>
<polyline fill="none" stroke="black" points="894.5,-805 894.5,-869 "/>
<path fill="none" stroke="black" d="M894.5,-869C894.5,-875 888.5,-881 882.5,-881"/>
<polyline fill="none" stroke="black" points="882.5,-881 741.5,-881 "/>
<path fill="none" stroke="black" d="M741.5,-881C735.5,-881 729.5,-875 729.5,-869"/>
<polyline fill="none" stroke="black" points="729.5,-869 729.5,-805 "/>
<path fill="none" stroke="black" d="M729.5,-805C729.5,-799 735.5,-793 741.5,-793"/>
<text text-anchor="middle" x="812" y="-864.4" font-family="Times Roman,serif" font-size="14.00">Role</text>
<polyline fill="none" stroke="black" points="729.5,-855 894.5,-855 "/>
<text text-anchor="start" x="737.5" y="-838.4" font-family="Times Roman,serif" font-size="14.00">name :string</text>
<text text-anchor="start" x="737.5" y="-820.4" font-family="Times Roman,serif" font-size="14.00">created_at :datetime</text>
<text text-anchor="start" x="737.5" y="-802.4" font-family="Times Roman,serif" font-size="14.00">updated_at :datetime</text>
</g>
<!-- User -->
<g id="node21" class="node"><title>User</title>
<polyline fill="none" stroke="black" points="706,-451 936,-451 "/>
<path fill="none" stroke="black" d="M936,-451C942,-451 948,-457 948,-463"/>
<polyline fill="none" stroke="black" points="948,-463 948,-671 "/>
<path fill="none" stroke="black" d="M948,-671C948,-677 942,-683 936,-683"/>
<polyline fill="none" stroke="black" points="936,-683 706,-683 "/>
<path fill="none" stroke="black" d="M706,-683C700,-683 694,-677 694,-671"/>
<polyline fill="none" stroke="black" points="694,-671 694,-463 "/>
<path fill="none" stroke="black" d="M694,-463C694,-457 700,-451 706,-451"/>
<text text-anchor="middle" x="821" y="-666.4" font-family="Times Roman,serif" font-size="14.00">User</text>
<polyline fill="none" stroke="black" points="694,-657 948,-657 "/>
<text text-anchor="start" x="702" y="-640.4" font-family="Times Roman,serif" font-size="14.00">email :string</text>
<text text-anchor="start" x="702" y="-622.4" font-family="Times Roman,serif" font-size="14.00">encrypted_password :string</text>
<text text-anchor="start" x="702" y="-604.4" font-family="Times Roman,serif" font-size="14.00">reset_password_token :string</text>
<text text-anchor="start" x="702" y="-586.4" font-family="Times Roman,serif" font-size="14.00">reset_password_sent_at :datetime</text>
<text text-anchor="start" x="702" y="-568.4" font-family="Times Roman,serif" font-size="14.00">remember_created_at :datetime</text>
<text text-anchor="start" x="702" y="-550.4" font-family="Times Roman,serif" font-size="14.00">current_sign_in_at :datetime</text>
<text text-anchor="start" x="702" y="-532.4" font-family="Times Roman,serif" font-size="14.00">last_sign_in_at :datetime</text>
<text text-anchor="start" x="702" y="-514.4" font-family="Times Roman,serif" font-size="14.00">current_sign_in_ip :string</text>
<text text-anchor="start" x="702" y="-496.4" font-family="Times Roman,serif" font-size="14.00">last_sign_in_ip :string</text>
<text text-anchor="start" x="702" y="-478.4" font-family="Times Roman,serif" font-size="14.00">created_at :datetime</text>
<text text-anchor="start" x="702" y="-460.4" font-family="Times Roman,serif" font-size="14.00">updated_at :datetime</text>
</g>
<!-- Role&#45;&gt;User -->
<g id="edge34" class="edge"><title>Role&#45;&gt;User</title>
<path fill="none" stroke="#e495dc" d="M813.815,-782.546C814.675,-756.75 815.741,-724.77 816.786,-693.41"/>
<polygon fill="#e495dc" stroke="#e495dc" points="813.809,-782.723 808.979,-792.567 813.643,-787.72 813.476,-792.717 813.476,-792.717 813.476,-792.717 813.643,-787.72 817.974,-792.867 813.809,-782.723 813.809,-782.723"/>
<polygon fill="#e495dc" stroke="#e495dc" points="816.791,-693.253 821.622,-683.408 816.958,-688.256 817.125,-683.258 817.125,-683.258 817.125,-683.258 816.958,-688.256 812.627,-683.109 816.791,-693.253 816.791,-693.253"/>
</g>
<!-- Product&#45;&gt;CaseStudy -->
<g id="edge36" class="edge"><title>Product&#45;&gt;CaseStudy</title>
<path fill="none" stroke="#47f2ba" d="M622.754,-782.652C616.874,-738.552 608.577,-676.325 602.406,-630.041"/>
<polygon fill="#47f2ba" stroke="#47f2ba" points="622.774,-782.805 619.635,-793.312 623.435,-787.761 624.096,-792.717 624.096,-792.717 624.096,-792.717 623.435,-787.761 628.556,-792.123 622.774,-782.805 622.774,-782.805"/>
<polygon fill="#47f2ba" stroke="#47f2ba" points="602.405,-630.037 605.544,-619.53 601.744,-625.08 601.083,-620.124 601.083,-620.124 601.083,-620.124 601.744,-625.08 596.623,-620.719 602.405,-630.037 602.405,-630.037"/>
</g>
<!-- Document&#45;&gt;Docucheck -->
<g id="edge42" class="edge"><title>Document&#45;&gt;Docucheck</title>
<path fill="none" stroke="#4c598f" d="M431.74,-785.284C443.234,-756.03 456.653,-718.503 465,-684 483.762,-606.445 509.283,-376.012 520.419,-270.21"/>
<ellipse fill="none" stroke="#4c598f" cx="430.186" cy="-789.202" rx="4.00001" ry="4.00001"/>
<polygon fill="#4c598f" stroke="#4c598f" points="520.44,-270.011 525.959,-260.535 520.962,-265.038 521.483,-260.065 521.483,-260.065 521.483,-260.065 520.962,-265.038 517.008,-259.596 520.44,-270.011 520.44,-270.011"/>
</g>
<!-- Document&#45;&gt;Page -->
<g id="edge40" class="edge"><title>Document&#45;&gt;Page</title>
<path fill="none" stroke="#1f116c" d="M364.617,-786.575C326.658,-744.397 272.1,-683.778 229.922,-636.914"/>
<ellipse fill="none" stroke="#1f116c" cx="367.47" cy="-789.744" rx="4.00002" ry="4.00002"/>
<polygon fill="#1f116c" stroke="#1f116c" points="229.688,-636.653 226.343,-626.21 226.343,-632.937 222.998,-629.221 222.998,-629.221 222.998,-629.221 226.343,-632.937 219.654,-632.231 229.688,-636.653 229.688,-636.653"/>
</g>
<!-- Document&#45;&gt;CaseStudy -->
<g id="edge38" class="edge"><title>Document&#45;&gt;CaseStudy</title>
<path fill="none" stroke="#ad54a9" d="M445.827,-784.428C476.295,-739.72 520.079,-675.472 552.152,-628.408"/>
<polygon fill="#ad54a9" stroke="#ad54a9" points="445.809,-784.454 436.459,-790.183 442.994,-788.586 440.178,-792.717 440.178,-792.717 440.178,-792.717 442.994,-788.586 443.896,-795.252 445.809,-784.454 445.809,-784.454"/>
<polygon fill="#ad54a9" stroke="#ad54a9" points="552.165,-628.388 561.515,-622.658 554.981,-624.256 557.797,-620.124 557.797,-620.124 557.797,-620.124 554.981,-624.256 554.078,-617.59 552.165,-628.388 552.165,-628.388"/>
</g>
<!-- Assignment -->
<g id="node16" class="node"><title>Assignment</title>
<polyline fill="none" stroke="black" points="700.5,-334 841.5,-334 "/>
<path fill="none" stroke="black" d="M841.5,-334C847.5,-334 853.5,-340 853.5,-346"/>
<polyline fill="none" stroke="black" points="853.5,-346 853.5,-392 "/>
<path fill="none" stroke="black" d="M853.5,-392C853.5,-398 847.5,-404 841.5,-404"/>
<polyline fill="none" stroke="black" points="841.5,-404 700.5,-404 "/>
<path fill="none" stroke="black" d="M700.5,-404C694.5,-404 688.5,-398 688.5,-392"/>
<polyline fill="none" stroke="black" points="688.5,-392 688.5,-346 "/>
<path fill="none" stroke="black" d="M688.5,-346C688.5,-340 694.5,-334 700.5,-334"/>
<text text-anchor="middle" x="771" y="-387.4" font-family="Times Roman,serif" font-size="14.00">Assignment</text>
<polyline fill="none" stroke="black" points="688.5,-378 853.5,-378 "/>
<text text-anchor="start" x="696.5" y="-361.4" font-family="Times Roman,serif" font-size="14.00">created_at :datetime</text>
<text text-anchor="start" x="696.5" y="-343.4" font-family="Times Roman,serif" font-size="14.00">updated_at :datetime</text>
</g>
<!-- Assignment&#45;&gt;Docucheck -->
<g id="edge44" class="edge"><title>Assignment&#45;&gt;Docucheck</title>
<path fill="none" stroke="#78be83" d="M707.681,-329.458C676.545,-310.014 638.695,-286.377 605.619,-265.721"/>
<ellipse fill="none" stroke="#78be83" cx="711.399" cy="-331.78" rx="4.00002" ry="4.00002"/>
<polygon fill="#78be83" stroke="#78be83" points="605.356,-265.557 599.258,-256.443 601.115,-262.909 596.874,-260.26 596.874,-260.26 596.874,-260.26 601.115,-262.909 594.491,-264.077 605.356,-265.557 605.356,-265.557"/>
</g>
<!-- Quiz -->
<g id="node20" class="node"><title>Quiz</title>
<polyline fill="none" stroke="black" points="751.5,-163 892.5,-163 "/>
<path fill="none" stroke="black" d="M892.5,-163C898.5,-163 904.5,-169 904.5,-175"/>
<polyline fill="none" stroke="black" points="904.5,-175 904.5,-257 "/>
<path fill="none" stroke="black" d="M904.5,-257C904.5,-263 898.5,-269 892.5,-269"/>
<polyline fill="none" stroke="black" points="892.5,-269 751.5,-269 "/>
<path fill="none" stroke="black" d="M751.5,-269C745.5,-269 739.5,-263 739.5,-257"/>
<polyline fill="none" stroke="black" points="739.5,-257 739.5,-175 "/>
<path fill="none" stroke="black" d="M739.5,-175C739.5,-169 745.5,-163 751.5,-163"/>
<text text-anchor="middle" x="822" y="-252.4" font-family="Times Roman,serif" font-size="14.00">Quiz</text>
<polyline fill="none" stroke="black" points="739.5,-243 904.5,-243 "/>
<text text-anchor="start" x="747.5" y="-226.4" font-family="Times Roman,serif" font-size="14.00">qcount :integer</text>
<text text-anchor="start" x="747.5" y="-208.4" font-family="Times Roman,serif" font-size="14.00">score :integer</text>
<text text-anchor="start" x="747.5" y="-190.4" font-family="Times Roman,serif" font-size="14.00">created_at :datetime</text>
<text text-anchor="start" x="747.5" y="-172.4" font-family="Times Roman,serif" font-size="14.00">updated_at :datetime</text>
</g>
<!-- Assignment&#45;&gt;Quiz -->
<g id="edge46" class="edge"><title>Assignment&#45;&gt;Quiz</title>
<path fill="none" stroke="#a2a9b5" d="M785.324,-326.027C790.19,-311.431 795.732,-294.805 801.008,-278.976"/>
<ellipse fill="none" stroke="#a2a9b5" cx="783.965" cy="-330.104" rx="4.00001" ry="4.00001"/>
<polygon fill="#a2a9b5" stroke="#a2a9b5" points="801.088,-278.736 808.519,-270.672 802.669,-273.993 804.25,-269.249 804.25,-269.249 804.25,-269.249 802.669,-273.993 799.981,-267.826 801.088,-278.736 801.088,-278.736"/>
</g>
<!-- QuizQuestions -->
<g id="node17" class="node"><title>QuizQuestions</title>
<polyline fill="none" stroke="black" points="1191,-991 1365,-991 "/>
<path fill="none" stroke="black" d="M1365,-991C1371,-991 1377,-997 1377,-1003"/>
<polyline fill="none" stroke="black" points="1377,-1003 1377,-1139 "/>
<path fill="none" stroke="black" d="M1377,-1139C1377,-1145 1371,-1151 1365,-1151"/>
<polyline fill="none" stroke="black" points="1365,-1151 1191,-1151 "/>
<path fill="none" stroke="black" d="M1191,-1151C1185,-1151 1179,-1145 1179,-1139"/>
<polyline fill="none" stroke="black" points="1179,-1139 1179,-1003 "/>
<path fill="none" stroke="black" d="M1179,-1003C1179,-997 1185,-991 1191,-991"/>
<text text-anchor="middle" x="1278" y="-1134.4" font-family="Times Roman,serif" font-size="14.00">QuizQuestions</text>
<polyline fill="none" stroke="black" points="1179,-1125 1377,-1125 "/>
<text text-anchor="start" x="1187" y="-1108.4" font-family="Times Roman,serif" font-size="14.00">optiona :boolean</text>
<text text-anchor="start" x="1187" y="-1090.4" font-family="Times Roman,serif" font-size="14.00">optionb :boolean</text>
<text text-anchor="start" x="1187" y="-1072.4" font-family="Times Roman,serif" font-size="14.00">optionc :boolean</text>
<text text-anchor="start" x="1187" y="-1054.4" font-family="Times Roman,serif" font-size="14.00">optiond :boolean</text>
<text text-anchor="start" x="1187" y="-1036.4" font-family="Times Roman,serif" font-size="14.00">marked_correctly :boolean</text>
<text text-anchor="start" x="1187" y="-1018.4" font-family="Times Roman,serif" font-size="14.00">created_at :datetime</text>
<text text-anchor="start" x="1187" y="-1000.4" font-family="Times Roman,serif" font-size="14.00">updated_at :datetime</text>
</g>
<!-- Example&#45;&gt;FilledSection -->
<g id="edge48" class="edge"><title>Example&#45;&gt;FilledSection</title>
<path fill="none" stroke="#ec9fd7" d="M304,-163.598C304,-148.914 304,-132.792 304,-117.537"/>
<ellipse fill="none" stroke="#ec9fd7" cx="304" cy="-167.733" rx="4" ry="4"/>
<polygon fill="#ec9fd7" stroke="#ec9fd7" points="304,-117.143 308.5,-107.143 304,-112.143 304,-107.143 304,-107.143 304,-107.143 304,-112.143 299.5,-107.143 304,-117.143 304,-117.143"/>
</g>
<!-- CaseStudy&#45;&gt;Assignment -->
<g id="edge52" class="edge"><title>CaseStudy&#45;&gt;Assignment</title>
<path fill="none" stroke="#debec8" d="M637.871,-506.944C652.3,-488.208 668.806,-467.8 685,-450 696.999,-436.81 710.767,-423.238 723.718,-411.063"/>
<ellipse fill="none" stroke="#debec8" cx="635.084" cy="-510.586" rx="4.00002" ry="4.00002"/>
<polygon fill="#debec8" stroke="#debec8" points="723.91,-410.884 734.296,-407.363 727.57,-407.477 731.23,-404.07 731.23,-404.07 731.23,-404.07 727.57,-407.477 728.163,-400.776 723.91,-410.884 723.91,-410.884"/>
</g>
<!-- Tag -->
<g id="node49" class="node"><title>Tag</title>
<ellipse fill="none" stroke="black" cx="594" cy="-369" rx="27.7881" ry="18.3848"/>
<text text-anchor="middle" x="594" y="-365.4" font-family="Times Roman,serif" font-size="14.00">Tag</text>
</g>
<!-- CaseStudy&#45;&gt;Tag -->
<g id="edge50" class="edge"><title>CaseStudy&#45;&gt;Tag</title>
<path fill="none" stroke="#3ab18b" d="M594,-505.714C594,-469.93 594,-426.416 594,-398.236"/>
<ellipse fill="none" stroke="#3ab18b" cx="594" cy="-509.94" rx="4" ry="4"/>
<polygon fill="#3ab18b" stroke="#3ab18b" points="594,-397.879 598.5,-387.879 594,-392.879 594,-387.879 594,-387.879 594,-387.879 594,-392.879 589.5,-387.879 594,-397.879 594,-397.879"/>
</g>
<!-- Quiz&#45;&gt;QuizQuestion -->
<g id="edge54" class="edge"><title>Quiz&#45;&gt;QuizQuestion</title>
<path fill="none" stroke="#7bde6c" d="M852.23,-155.54C864.98,-130.041 879.183,-101.634 889.318,-81.365"/>
<ellipse fill="none" stroke="#7bde6c" cx="850.311" cy="-159.377" rx="4.00002" ry="4.00002"/>
<polygon fill="#7bde6c" stroke="#7bde6c" points="889.332,-81.3356 897.829,-74.4038 891.568,-76.8634 893.804,-72.3913 893.804,-72.3913 893.804,-72.3913 891.568,-76.8634 889.779,-70.3788 889.332,-81.3356 889.332,-81.3356"/>
</g>
<!-- User&#45;&gt;Assignment -->
<g id="edge56" class="edge"><title>User&#45;&gt;Assignment</title>
<path fill="none" stroke="#61454a" d="M789.695,-443.03C787.097,-432.743 784.596,-422.841 782.315,-413.808"/>
<ellipse fill="none" stroke="#61454a" cx="790.718" cy="-447.085" rx="4.00001" ry="4.00001"/>
<polygon fill="#61454a" stroke="#61454a" points="782.288,-413.701 784.203,-402.904 781.064,-408.854 779.84,-404.006 779.84,-404.006 779.84,-404.006 781.064,-408.854 775.477,-405.108 782.288,-413.701 782.288,-413.701"/>
</g>
<!-- SuperSet -->
<g id="node22" class="node"><title>SuperSet</title>
<polyline fill="none" stroke="black" points="303.5,-523 444.5,-523 "/>
<path fill="none" stroke="black" d="M444.5,-523C450.5,-523 456.5,-529 456.5,-535"/>
<polyline fill="none" stroke="black" points="456.5,-535 456.5,-599 "/>
<path fill="none" stroke="black" d="M456.5,-599C456.5,-605 450.5,-611 444.5,-611"/>
<polyline fill="none" stroke="black" points="444.5,-611 303.5,-611 "/>
<path fill="none" stroke="black" d="M303.5,-611C297.5,-611 291.5,-605 291.5,-599"/>
<polyline fill="none" stroke="black" points="291.5,-599 291.5,-535 "/>
<path fill="none" stroke="black" d="M291.5,-535C291.5,-529 297.5,-523 303.5,-523"/>
<text text-anchor="middle" x="374" y="-594.4" font-family="Times Roman,serif" font-size="14.00">SuperSet</text>
<polyline fill="none" stroke="black" points="291.5,-585 456.5,-585 "/>
<text text-anchor="start" x="299.5" y="-568.4" font-family="Times Roman,serif" font-size="14.00">name :string</text>
<text text-anchor="start" x="299.5" y="-550.4" font-family="Times Roman,serif" font-size="14.00">created_at :datetime</text>
<text text-anchor="start" x="299.5" y="-532.4" font-family="Times Roman,serif" font-size="14.00">updated_at :datetime</text>
</g>
<!-- SuperSet&#45;&gt;ReferenceSet -->
<g id="edge58" class="edge"><title>SuperSet&#45;&gt;ReferenceSet</title>
<path fill="none" stroke="#3d7bc5" d="M374,-514.321C374,-486.247 374,-451.757 374,-423.423"/>
<ellipse fill="none" stroke="#3d7bc5" cx="374" cy="-518.565" rx="4" ry="4"/>
<polygon fill="#3d7bc5" stroke="#3d7bc5" points="374,-423.287 378.5,-413.287 374,-418.287 374,-413.287 374,-413.287 374,-413.287 374,-418.287 369.5,-413.287 374,-423.287 374,-423.287"/>
</g>
</g>
</svg>
