<?xml version="1.0" encoding="UTF-8" standalone="no"?>
<!DOCTYPE svg PUBLIC "-//W3C//DTD SVG 1.1//EN"
 "http://www.w3.org/Graphics/SVG/1.1/DTD/svg11.dtd">
<!-- Generated by graphviz version 2.26.3 (20100126.1600)
 -->
<!-- Title: models_diagram Pages: 1 -->
<svg width="986pt" height="472pt"
 viewBox="0.00 0.00 986.00 472.00" xmlns="http://www.w3.org/2000/svg" xmlns:xlink="http://www.w3.org/1999/xlink">
<g id="graph1" class="graph" transform="scale(1 1) rotate(0) translate(4 468)">
<title>models_diagram</title>
<polygon fill="white" stroke="white" points="-4,5 -4,-468 983,-468 983,5 -4,5"/>
<!-- _diagram_info -->
<g id="node1" class="node"><title>_diagram_info</title>
<text text-anchor="start" x="77" y="-447.8" font-family="Times Roman,serif" font-size="13.00">Models diagram</text>
<text text-anchor="start" x="77" y="-430.8" font-family="Times Roman,serif" font-size="13.00">Date: Feb 28 2012 &#45; 17:53</text>
<text text-anchor="start" x="77" y="-413.8" font-family="Times Roman,serif" font-size="13.00">Migration version: 20120228120121</text>
<text text-anchor="start" x="77" y="-396.8" font-family="Times Roman,serif" font-size="13.00">Generated by RailRoady 1.0.7</text>
<text text-anchor="start" x="77" y="-379.8" font-family="Times Roman,serif" font-size="13.00">http://railroady.prestonlee.com</text>
</g>
<!-- Concept -->
<g id="node2" class="node"><title>Concept</title>
<ellipse fill="none" stroke="black" cx="665" cy="-417" rx="51.1176" ry="18.3848"/>
<text text-anchor="middle" x="665" y="-413.4" font-family="Times Roman,serif" font-size="14.00">Concept</text>
</g>
<!-- Question -->
<g id="node7" class="node"><title>Question</title>
<ellipse fill="none" stroke="black" cx="665" cy="-315" rx="55.8614" ry="18.3848"/>
<text text-anchor="middle" x="665" y="-311.4" font-family="Times Roman,serif" font-size="14.00">Question</text>
</g>
<!-- Concept&#45;&gt;Question -->
<g id="edge6" class="edge"><title>Concept&#45;&gt;Question</title>
<path fill="none" stroke="#b9e286" d="M665,-390.015C665,-375.835 665,-358.445 665,-343.98"/>
<ellipse fill="none" stroke="#b9e286" cx="665" cy="-394.292" rx="4" ry="4"/>
<polygon fill="#b9e286" stroke="#b9e286" points="665,-343.59 669.5,-333.59 665,-338.59 665,-333.59 665,-333.59 665,-333.59 665,-338.59 660.5,-333.59 665,-343.59 665,-343.59"/>
</g>
<!-- Slide -->
<g id="node8" class="node"><title>Slide</title>
<ellipse fill="none" stroke="black" cx="774" cy="-315" rx="34.8574" ry="18.3848"/>
<text text-anchor="middle" x="774" y="-311.4" font-family="Times Roman,serif" font-size="14.00">Slide</text>
</g>
<!-- Concept&#45;&gt;Slide -->
<g id="edge4" class="edge"><title>Concept&#45;&gt;Slide</title>
<path fill="none" stroke="#9df38a" d="M689.531,-394.044C707.195,-377.514 730.955,-355.281 748.776,-338.605"/>
<ellipse fill="none" stroke="#9df38a" cx="686.411" cy="-396.964" rx="4.00002" ry="4.00002"/>
<polygon fill="#9df38a" stroke="#9df38a" points="749.201,-338.207 759.577,-334.66 752.852,-334.79 756.502,-331.374 756.502,-331.374 756.502,-331.374 752.852,-334.79 753.428,-328.088 749.201,-338.207 749.201,-338.207"/>
</g>
<!-- Product -->
<g id="node13" class="node"><title>Product</title>
<ellipse fill="none" stroke="black" cx="460" cy="-315" rx="48.9975" ry="18.3848"/>
<text text-anchor="middle" x="460" y="-311.4" font-family="Times Roman,serif" font-size="14.00">Product</text>
</g>
<!-- Concept&#45;&gt;Product -->
<g id="edge2" class="edge"><title>Concept&#45;&gt;Product</title>
<path fill="none" stroke="#b162f4" d="M625.627,-397.409C589.187,-379.279 535.316,-352.474 498.997,-334.403"/>
<polygon fill="#b162f4" stroke="#b162f4" points="625.799,-397.495 632.747,-405.978 630.275,-399.722 634.752,-401.95 634.752,-401.95 634.752,-401.95 630.275,-399.722 636.756,-397.921 625.799,-397.495 625.799,-397.495"/>
<polygon fill="#b162f4" stroke="#b162f4" points="498.659,-334.235 491.711,-325.752 494.183,-332.008 489.706,-329.781 489.706,-329.781 489.706,-329.781 494.183,-332.008 487.701,-333.809 498.659,-334.235 498.659,-334.235"/>
</g>
<!-- Component -->
<g id="node3" class="node"><title>Component</title>
<ellipse fill="none" stroke="black" cx="90" cy="-167" rx="67.8823" ry="18.3848"/>
<text text-anchor="middle" x="90" y="-163.4" font-family="Times Roman,serif" font-size="14.00">Component</text>
</g>
<!-- BlankSection -->
<g id="node10" class="node"><title>BlankSection</title>
<ellipse fill="none" stroke="black" cx="75" cy="-93" rx="75.1594" ry="18.3848"/>
<text text-anchor="middle" x="75" y="-89.4" font-family="Times Roman,serif" font-size="14.00">BlankSection</text>
</g>
<!-- Component&#45;&gt;BlankSection -->
<g id="edge10" class="edge"><title>Component&#45;&gt;BlankSection</title>
<path fill="none" stroke="#f8cfaf" d="M84.5897,-140.309C83.3571,-134.229 82.0428,-127.745 80.795,-121.589"/>
<ellipse fill="none" stroke="#f8cfaf" cx="85.4202" cy="-144.406" rx="4.00001" ry="4.00001"/>
<polygon fill="#f8cfaf" stroke="#f8cfaf" points="80.7706,-121.468 83.1942,-110.773 79.7773,-116.568 78.7839,-111.667 78.7839,-111.667 78.7839,-111.667 79.7773,-116.568 74.3736,-112.561 80.7706,-121.468 80.7706,-121.468"/>
</g>
<!-- Example -->
<g id="node18" class="node"><title>Example</title>
<ellipse fill="none" stroke="black" cx="221" cy="-93" rx="53.033" ry="18.3848"/>
<text text-anchor="middle" x="221" y="-89.4" font-family="Times Roman,serif" font-size="14.00">Example</text>
</g>
<!-- Component&#45;&gt;Example -->
<g id="edge8" class="edge"><title>Component&#45;&gt;Example</title>
<path fill="none" stroke="#859659" d="M126.891,-146.161C144.669,-136.118 165.948,-124.098 183.77,-114.03"/>
<ellipse fill="none" stroke="#859659" cx="123.209" cy="-148.241" rx="4.00002" ry="4.00002"/>
<polygon fill="#859659" stroke="#859659" points="184.032,-113.883 194.952,-112.882 188.385,-111.424 192.739,-108.964 192.739,-108.964 192.739,-108.964 188.385,-111.424 190.525,-105.046 184.032,-113.883 184.032,-113.883"/>
</g>
<!-- Docucheck -->
<g id="node4" class="node"><title>Docucheck</title>
<ellipse fill="none" stroke="black" cx="356" cy="-93" rx="63.8479" ry="18.3848"/>
<text text-anchor="middle" x="356" y="-89.4" font-family="Times Roman,serif" font-size="14.00">Docucheck</text>
</g>
<!-- FilledSection -->
<g id="node14" class="node"><title>FilledSection</title>
<ellipse fill="none" stroke="black" cx="221" cy="-19" rx="72.832" ry="18.3848"/>
<text text-anchor="middle" x="221" y="-15.4" font-family="Times Roman,serif" font-size="14.00">FilledSection</text>
</g>
<!-- Docucheck&#45;&gt;FilledSection -->
<g id="edge12" class="edge"><title>Docucheck&#45;&gt;FilledSection</title>
<path fill="none" stroke="#36e50e" d="M318.815,-72.6173C300.799,-62.7416 279.145,-50.8723 260.797,-40.8145"/>
<ellipse fill="none" stroke="#36e50e" cx="322.532" cy="-74.6543" rx="4.00002" ry="4.00002"/>
<polygon fill="#36e50e" stroke="#36e50e" points="260.582,-40.6969 253.976,-31.9441 256.198,-38.2935 251.813,-35.8901 251.813,-35.8901 251.813,-35.8901 256.198,-38.2935 249.65,-39.8362 260.582,-40.6969 260.582,-40.6969"/>
</g>
<!-- Docket -->
<g id="node5" class="node"><title>Docket</title>
<ellipse fill="none" stroke="black" cx="383" cy="-417" rx="45.9619" ry="18.3848"/>
<text text-anchor="middle" x="383" y="-413.4" font-family="Times Roman,serif" font-size="14.00">Docket</text>
</g>
<!-- Docket&#45;&gt;Question -->
<g id="edge22" class="edge"><title>Docket&#45;&gt;Question</title>
<path fill="none" stroke="#322834" d="M425.058,-401.788C476.49,-383.184 563.334,-351.773 617.235,-332.277"/>
<ellipse fill="none" stroke="#322834" cx="421.058" cy="-403.234" rx="4.00001" ry="4.00001"/>
<polygon fill="#322834" stroke="#322834" points="617.496,-332.182 628.431,-333.013 622.198,-330.482 626.9,-328.781 626.9,-328.781 626.9,-328.781 622.198,-330.482 625.369,-324.549 617.496,-332.182 617.496,-332.182"/>
</g>
<!-- ReferenceSet -->
<g id="node11" class="node"><title>ReferenceSet</title>
<ellipse fill="none" stroke="black" cx="252" cy="-167" rx="75.8684" ry="18.3848"/>
<text text-anchor="middle" x="252" y="-163.4" font-family="Times Roman,serif" font-size="14.00">ReferenceSet</text>
</g>
<!-- Docket&#45;&gt;ReferenceSet -->
<g id="edge18" class="edge"><title>Docket&#45;&gt;ReferenceSet</title>
<path fill="none" stroke="#4d88f1" d="M358.509,-392.588C349.482,-384.571 338.808,-376.149 328,-370 236.764,-318.093 166.903,-353.401 119,-260 111.293,-244.972 109.613,-236.04 119,-222 127.967,-208.588 161.733,-194.711 192.995,-184.252"/>
<polygon fill="#4d88f1" stroke="#4d88f1" points="358.621,-392.692 362.933,-402.774 362.301,-396.077 365.98,-399.463 365.98,-399.463 365.98,-399.463 362.301,-396.077 369.027,-396.151 358.621,-392.692 358.621,-392.692"/>
<polygon fill="#4d88f1" stroke="#4d88f1" points="193.081,-184.224 203.984,-185.397 197.834,-182.672 202.587,-181.12 202.587,-181.12 202.587,-181.12 197.834,-182.672 201.19,-176.842 193.081,-184.224 193.081,-184.224"/>
</g>
<!-- Docket&#45;&gt;Product -->
<g id="edge14" class="edge"><title>Docket&#45;&gt;Product</title>
<path fill="none" stroke="#69eb4f" d="M402.763,-390.821C414.332,-375.496 428.885,-356.217 440.422,-340.934"/>
<polygon fill="#69eb4f" stroke="#69eb4f" points="402.437,-391.252 392.821,-396.522 399.425,-395.242 396.412,-399.233 396.412,-399.233 396.412,-399.233 399.425,-395.242 400.004,-401.944 402.437,-391.252 402.437,-391.252"/>
<polygon fill="#69eb4f" stroke="#69eb4f" points="440.458,-340.887 450.075,-335.617 443.47,-336.896 446.483,-332.906 446.483,-332.906 446.483,-332.906 443.47,-336.896 442.891,-330.194 440.458,-340.887 440.458,-340.887"/>
</g>
<!-- Document -->
<g id="node15" class="node"><title>Document</title>
<ellipse fill="none" stroke="black" cx="293" cy="-315" rx="62.2254" ry="18.3848"/>
<text text-anchor="middle" x="293" y="-311.4" font-family="Times Roman,serif" font-size="14.00">Document</text>
</g>
<!-- Docket&#45;&gt;Document -->
<g id="edge16" class="edge"><title>Docket&#45;&gt;Document</title>
<path fill="none" stroke="#77ee4f" d="M360.337,-391.315C346.643,-375.795 329.252,-356.085 315.574,-340.584"/>
<polygon fill="#77ee4f" stroke="#77ee4f" points="360.707,-391.735 363.949,-402.21 364.015,-395.484 367.323,-399.233 367.323,-399.233 367.323,-399.233 364.015,-395.484 370.697,-396.256 360.707,-391.735 360.707,-391.735"/>
<polygon fill="#77ee4f" stroke="#77ee4f" points="315.415,-340.404 312.173,-329.928 312.107,-336.655 308.799,-332.906 308.799,-332.906 308.799,-332.906 312.107,-336.655 305.425,-335.883 315.415,-340.404 315.415,-340.404"/>
</g>
<!-- CaseStudy -->
<g id="node19" class="node"><title>CaseStudy</title>
<ellipse fill="none" stroke="black" cx="447" cy="-241" rx="63.1385" ry="18.3848"/>
<text text-anchor="middle" x="447" y="-237.4" font-family="Times Roman,serif" font-size="14.00">CaseStudy</text>
</g>
<!-- Docket&#45;&gt;CaseStudy -->
<g id="edge20" class="edge"><title>Docket&#45;&gt;CaseStudy</title>
<path fill="none" stroke="#de4b03" d="M383.317,-388.048C384.562,-362.75 388.777,-325.551 402,-296 406.707,-285.481 413.97,-275.316 421.297,-266.647"/>
<polygon fill="#de4b03" stroke="#de4b03" points="383.315,-388.111 378.451,-397.94 383.131,-393.108 382.948,-398.105 382.948,-398.105 382.948,-398.105 383.131,-393.108 387.445,-398.27 383.315,-388.111 383.315,-388.111"/>
<polygon fill="#de4b03" stroke="#de4b03" points="421.328,-266.613 431.335,-262.129 424.65,-262.876 427.972,-259.139 427.972,-259.139 427.972,-259.139 424.65,-262.876 424.609,-256.149 421.328,-266.613 421.328,-266.613"/>
</g>
<!-- Page -->
<g id="node6" class="node"><title>Page</title>
<ellipse fill="none" stroke="black" cx="163" cy="-241" rx="34.8574" ry="18.3848"/>
<text text-anchor="middle" x="163" y="-237.4" font-family="Times Roman,serif" font-size="14.00">Page</text>
</g>
<!-- Page&#45;&gt;BlankSection -->
<g id="edge24" class="edge"><title>Page&#45;&gt;BlankSection</title>
<path fill="none" stroke="#b40942" d="M122.618,-231.709C82.7374,-221.619 25.8899,-204.455 13,-186 3.32939,-172.154 6.07365,-163.403 13,-148 18.4944,-135.781 28.1937,-125.175 38.3123,-116.625"/>
<ellipse fill="none" stroke="#b40942" cx="126.717" cy="-232.727" rx="4.00001" ry="4.00001"/>
<polygon fill="#b40942" stroke="#b40942" points="38.5902,-116.406 49.2299,-113.751 42.5175,-113.311 46.4449,-110.217 46.4449,-110.217 46.4449,-110.217 42.5175,-113.311 43.6598,-106.682 38.5902,-116.406 38.5902,-116.406"/>
</g>
<!-- QuizQuestion -->
<g id="node36" class="node"><title>QuizQuestion</title>
<ellipse fill="none" stroke="black" cx="619" cy="-19" rx="77.9889" ry="18.3848"/>
<text text-anchor="middle" x="619" y="-15.4" font-family="Times Roman,serif" font-size="14.00">QuizQuestion</text>
</g>
<!-- Question&#45;&gt;QuizQuestion -->
<g id="edge26" class="edge"><title>Question&#45;&gt;QuizQuestion</title>
<path fill="none" stroke="#b12a0e" d="M660.862,-288.373C652.228,-232.813 632.357,-104.948 623.455,-47.6666"/>
<ellipse fill="none" stroke="#b12a0e" cx="661.508" cy="-292.531" rx="4.00001" ry="4.00001"/>
<polygon fill="#b12a0e" stroke="#b12a0e" points="623.412,-47.3905 626.323,-36.8181 622.644,-42.4498 621.876,-37.5091 621.876,-37.5091 621.876,-37.5091 622.644,-42.4498 617.43,-38.2002 623.412,-47.3905 623.412,-47.3905"/>
</g>
<!-- Ability -->
<g id="node9" class="node"><title>Ability</title>
<polygon fill="none" stroke="black" points="794,-435 734,-435 734,-399 794,-399 794,-435"/>
<text text-anchor="middle" x="764" y="-413.4" font-family="Times Roman,serif" font-size="14.00">Ability</text>
</g>
<!-- BlankSection&#45;&gt;FilledSection -->
<g id="edge28" class="edge"><title>BlankSection&#45;&gt;FilledSection</title>
<path fill="none" stroke="#171598" d="M115.376,-72.5356C135.28,-62.4474 159.257,-50.2944 179.333,-40.1191"/>
<ellipse fill="none" stroke="#171598" cx="111.698" cy="-74.3998" rx="4.00002" ry="4.00002"/>
<polygon fill="#171598" stroke="#171598" points="179.334,-40.1187 190.288,-39.6116 183.793,-37.8582 188.253,-35.5977 188.253,-35.5977 188.253,-35.5977 183.793,-37.8582 186.219,-31.5838 179.334,-40.1187 179.334,-40.1187"/>
</g>
<!-- ReferenceSet&#45;&gt;Docucheck -->
<g id="edge32" class="edge"><title>ReferenceSet&#45;&gt;Docucheck</title>
<path fill="none" stroke="#b6d544" d="M283.553,-144.549C296.171,-135.57 310.7,-125.233 323.419,-116.183"/>
<ellipse fill="none" stroke="#b6d544" cx="279.906" cy="-147.144" rx="4.00002" ry="4.00002"/>
<polygon fill="#b6d544" stroke="#b6d544" points="323.741,-115.953 334.498,-113.822 327.815,-113.055 331.889,-110.156 331.889,-110.156 331.889,-110.156 327.815,-113.055 329.28,-106.489 323.741,-115.953 323.741,-115.953"/>
</g>
<!-- ReferenceSet&#45;&gt;Example -->
<g id="edge30" class="edge"><title>ReferenceSet&#45;&gt;Example</title>
<path fill="none" stroke="#38852d" d="M241.034,-140.824C238.299,-134.294 235.356,-127.27 232.592,-120.67"/>
<ellipse fill="none" stroke="#38852d" cx="242.632" cy="-144.637" rx="4.00002" ry="4.00002"/>
<polygon fill="#38852d" stroke="#38852d" points="232.577,-120.634 232.863,-109.672 230.645,-116.023 228.713,-111.411 228.713,-111.411 228.713,-111.411 230.645,-116.023 224.562,-113.15 232.577,-120.634 232.577,-120.634"/>
</g>
<!-- Role -->
<g id="node12" class="node"><title>Role</title>
<ellipse fill="none" stroke="black" cx="559" cy="-315" rx="32.0265" ry="18.3848"/>
<text text-anchor="middle" x="559" y="-311.4" font-family="Times Roman,serif" font-size="14.00">Role</text>
</g>
<!-- User -->
<g id="node21" class="node"><title>User</title>
<ellipse fill="none" stroke="black" cx="562" cy="-241" rx="33.9411" ry="18.3848"/>
<text text-anchor="middle" x="562" y="-237.4" font-family="Times Roman,serif" font-size="14.00">User</text>
</g>
<!-- Role&#45;&gt;User -->
<g id="edge34" class="edge"><title>Role&#45;&gt;User</title>
<path fill="none" stroke="#42b113" d="M560.164,-286.282C560.385,-280.836 560.616,-275.138 560.837,-269.693"/>
<polygon fill="#42b113" stroke="#42b113" points="560.162,-286.335 555.261,-296.144 559.96,-291.331 559.757,-296.327 559.757,-296.327 559.757,-296.327 559.96,-291.331 564.253,-296.509 560.162,-286.335 560.162,-286.335"/>
<polygon fill="#42b113" stroke="#42b113" points="560.838,-269.659 565.74,-259.85 561.041,-264.663 561.243,-259.667 561.243,-259.667 561.243,-259.667 561.041,-264.663 556.747,-259.485 560.838,-269.659 560.838,-269.659"/>
</g>
<!-- Product&#45;&gt;CaseStudy -->
<g id="edge36" class="edge"><title>Product&#45;&gt;CaseStudy</title>
<path fill="none" stroke="#bd1e97" d="M454.955,-286.282C453.998,-280.836 452.997,-275.138 452.041,-269.693"/>
<polygon fill="#bd1e97" stroke="#bd1e97" points="454.989,-286.478 452.287,-297.105 455.854,-291.402 456.72,-296.327 456.72,-296.327 456.72,-296.327 455.854,-291.402 461.152,-295.548 454.989,-286.478 454.989,-286.478"/>
<polygon fill="#bd1e97" stroke="#bd1e97" points="452.01,-269.517 454.712,-258.889 451.145,-264.592 450.279,-259.667 450.279,-259.667 450.279,-259.667 451.145,-264.592 445.847,-260.446 452.01,-269.517 452.01,-269.517"/>
</g>
<!-- Document&#45;&gt;Docucheck -->
<g id="edge42" class="edge"><title>Document&#45;&gt;Docucheck</title>
<path fill="none" stroke="#fe8ddc" d="M317.296,-290.701C324.847,-281.756 332.391,-271.085 337,-260 355.953,-214.413 358.153,-156.14 357.466,-121.86"/>
<ellipse fill="none" stroke="#fe8ddc" cx="314.484" cy="-293.89" rx="4.00002" ry="4.00002"/>
<polygon fill="#fe8ddc" stroke="#fe8ddc" points="357.458,-121.616 361.656,-111.485 357.308,-116.618 357.158,-111.62 357.158,-111.62 357.158,-111.62 357.308,-116.618 352.66,-111.755 357.458,-121.616 357.458,-121.616"/>
</g>
<!-- Document&#45;&gt;Page -->
<g id="edge40" class="edge"><title>Document&#45;&gt;Page</title>
<path fill="none" stroke="#89256c" d="M257.116,-294.574C237.914,-283.643 214.44,-270.281 195.739,-259.636"/>
<ellipse fill="none" stroke="#89256c" cx="260.673" cy="-296.598" rx="4.00002" ry="4.00002"/>
<polygon fill="#89256c" stroke="#89256c" points="195.672,-259.598 189.207,-250.74 191.327,-257.124 186.981,-254.651 186.981,-254.651 186.981,-254.651 191.327,-257.124 184.755,-258.562 195.672,-259.598 195.672,-259.598"/>
</g>
<!-- Document&#45;&gt;CaseStudy -->
<g id="edge38" class="edge"><title>Document&#45;&gt;CaseStudy</title>
<path fill="none" stroke="#aa5ebe" d="M335.225,-294.71C356.853,-284.317 383.116,-271.698 404.748,-261.303"/>
<polygon fill="#aa5ebe" stroke="#aa5ebe" points="335.05,-294.794 324.088,-295.069 330.544,-296.96 326.037,-299.125 326.037,-299.125 326.037,-299.125 330.544,-296.96 327.986,-303.181 335.05,-294.794 335.05,-294.794"/>
<polygon fill="#aa5ebe" stroke="#aa5ebe" points="405.004,-261.18 415.967,-260.905 409.511,-259.014 414.018,-256.849 414.018,-256.849 414.018,-256.849 409.511,-259.014 412.069,-252.793 405.004,-261.18 405.004,-261.18"/>
</g>
<!-- Assignment -->
<g id="node16" class="node"><title>Assignment</title>
<ellipse fill="none" stroke="black" cx="561" cy="-167" rx="68.0887" ry="18.3848"/>
<text text-anchor="middle" x="561" y="-163.4" font-family="Times Roman,serif" font-size="14.00">Assignment</text>
</g>
<!-- Assignment&#45;&gt;Docucheck -->
<g id="edge44" class="edge"><title>Assignment&#45;&gt;Docucheck</title>
<path fill="none" stroke="#fdcd56" d="M512.19,-149.381C480.102,-137.798 438.232,-122.684 405.922,-111.02"/>
<ellipse fill="none" stroke="#fdcd56" cx="516.246" cy="-150.845" rx="4.00001" ry="4.00001"/>
<polygon fill="#fdcd56" stroke="#fdcd56" points="405.628,-110.915 397.75,-103.287 400.925,-109.217 396.222,-107.519 396.222,-107.519 396.222,-107.519 400.925,-109.217 394.695,-111.752 405.628,-110.915 405.628,-110.915"/>
</g>
<!-- Quiz -->
<g id="node20" class="node"><title>Quiz</title>
<ellipse fill="none" stroke="black" cx="579" cy="-93" rx="34.1461" ry="18.3848"/>
<text text-anchor="middle" x="579" y="-89.4" font-family="Times Roman,serif" font-size="14.00">Quiz</text>
</g>
<!-- Assignment&#45;&gt;Quiz -->
<g id="edge46" class="edge"><title>Assignment&#45;&gt;Quiz</title>
<path fill="none" stroke="#e57354" d="M567.437,-140.535C568.94,-134.357 570.547,-127.751 572.07,-121.489"/>
<ellipse fill="none" stroke="#e57354" cx="566.488" cy="-144.44" rx="4.00001" ry="4.00001"/>
<polygon fill="#e57354" stroke="#e57354" points="572.158,-121.128 578.894,-112.475 573.34,-116.269 574.522,-111.411 574.522,-111.411 574.522,-111.411 573.34,-116.269 570.149,-110.347 572.158,-121.128 572.158,-121.128"/>
</g>
<!-- QuizQuestions -->
<g id="node17" class="node"><title>QuizQuestions</title>
<ellipse fill="none" stroke="black" cx="895" cy="-417" rx="82.939" ry="18.3848"/>
<text text-anchor="middle" x="895" y="-413.4" font-family="Times Roman,serif" font-size="14.00">QuizQuestions</text>
</g>
<!-- Example&#45;&gt;FilledSection -->
<g id="edge48" class="edge"><title>Example&#45;&gt;FilledSection</title>
<path fill="none" stroke="#2d7187" d="M221,-66.309C221,-60.3769 221,-54.0606 221,-48.0396"/>
<ellipse fill="none" stroke="#2d7187" cx="221" cy="-70.3267" rx="4" ry="4"/>
<polygon fill="#2d7187" stroke="#2d7187" points="221,-47.6674 225.5,-37.6673 221,-42.6674 221,-37.6674 221,-37.6674 221,-37.6674 221,-42.6674 216.5,-37.6674 221,-47.6674 221,-47.6674"/>
</g>
<!-- CaseStudy&#45;&gt;Assignment -->
<g id="edge52" class="edge"><title>CaseStudy&#45;&gt;Assignment</title>
<path fill="none" stroke="#2ca1ad" d="M480.32,-219.371C494.631,-210.081 511.365,-199.219 525.871,-189.803"/>
<ellipse fill="none" stroke="#2ca1ad" cx="476.509" cy="-221.845" rx="4.00002" ry="4.00002"/>
<polygon fill="#2ca1ad" stroke="#2ca1ad" points="526.185,-189.599 537.023,-187.929 530.379,-186.877 534.573,-184.154 534.573,-184.154 534.573,-184.154 530.379,-186.877 532.123,-180.38 526.185,-189.599 526.185,-189.599"/>
</g>
<!-- Tag -->
<g id="node49" class="node"><title>Tag</title>
<ellipse fill="none" stroke="black" cx="447" cy="-167" rx="27.7881" ry="18.3848"/>
<text text-anchor="middle" x="447" y="-163.4" font-family="Times Roman,serif" font-size="14.00">Tag</text>
</g>
<!-- CaseStudy&#45;&gt;Tag -->
<g id="edge50" class="edge"><title>CaseStudy&#45;&gt;Tag</title>
<path fill="none" stroke="#0ff492" d="M447,-214.309C447,-208.377 447,-202.061 447,-196.04"/>
<ellipse fill="none" stroke="#0ff492" cx="447" cy="-218.327" rx="4" ry="4"/>
<polygon fill="#0ff492" stroke="#0ff492" points="447,-195.667 451.5,-185.667 447,-190.667 447,-185.667 447,-185.667 447,-185.667 447,-190.667 442.5,-185.667 447,-195.667 447,-195.667"/>
</g>
<!-- Quiz&#45;&gt;QuizQuestion -->
<g id="edge54" class="edge"><title>Quiz&#45;&gt;QuizQuestion</title>
<path fill="none" stroke="#beda1e" d="M592.623,-67.7974C596.312,-60.9732 600.324,-53.551 604.08,-46.6024"/>
<ellipse fill="none" stroke="#beda1e" cx="590.585" cy="-71.5678" rx="4.00002" ry="4.00002"/>
<polygon fill="#beda1e" stroke="#beda1e" points="604.233,-46.3182 612.947,-39.661 606.611,-41.9197 608.989,-37.5212 608.989,-37.5212 608.989,-37.5212 606.611,-41.9197 605.03,-35.3813 604.233,-46.3182 604.233,-46.3182"/>
</g>
<!-- User&#45;&gt;Assignment -->
<g id="edge56" class="edge"><title>User&#45;&gt;Assignment</title>
<path fill="none" stroke="#110cfe" d="M561.639,-214.309C561.559,-208.377 561.474,-202.061 561.392,-196.04"/>
<ellipse fill="none" stroke="#110cfe" cx="561.694" cy="-218.327" rx="4" ry="4"/>
<polygon fill="#110cfe" stroke="#110cfe" points="561.387,-195.666 565.752,-185.607 561.32,-190.667 561.252,-185.667 561.252,-185.667 561.252,-185.667 561.32,-190.667 556.753,-185.728 561.387,-195.666 561.387,-195.666"/>
</g>
<!-- SuperSet -->
<g id="node22" class="node"><title>SuperSet</title>
<ellipse fill="none" stroke="black" cx="272" cy="-241" rx="56.0679" ry="18.3848"/>
<text text-anchor="middle" x="272" y="-237.4" font-family="Times Roman,serif" font-size="14.00">SuperSet</text>
</g>
<!-- SuperSet&#45;&gt;ReferenceSet -->
<g id="edge58" class="edge"><title>SuperSet&#45;&gt;ReferenceSet</title>
<path fill="none" stroke="#8b9676" d="M264.864,-214.596C263.207,-208.468 261.437,-201.915 259.755,-195.693"/>
<ellipse fill="none" stroke="#8b9676" cx="265.909" cy="-218.465" rx="4.00001" ry="4.00001"/>
<polygon fill="#8b9676" stroke="#8b9676" points="259.654,-195.321 261.389,-184.493 258.35,-190.494 257.045,-185.667 257.045,-185.667 257.045,-185.667 258.35,-190.494 252.701,-186.841 259.654,-195.321 259.654,-195.321"/>
</g>
</g>
</svg>
